<svg width="703" height="334" viewBox="0 0 703 334" fill="none" xmlns="http://www.w3.org/2000/svg">
<g clip-path="url(#clip0_335_2)">
<path d="M152.743 186.331C152.749 185.306 152.565 184.29 152.2 183.347C151.836 182.405 151.3 181.555 150.625 180.852C149.951 180.149 149.153 179.607 148.28 179.26C147.408 178.914 146.481 178.77 145.556 178.837C144.631 178.905 143.729 179.183 142.905 179.653C142.082 180.124 141.355 180.777 140.77 181.572C140.185 182.367 139.754 183.287 139.505 184.275C139.256 185.262 139.194 186.296 139.322 187.311L119.95 215.371C119.123 217.2 118.802 219.257 119.028 221.286C119.254 223.316 120.016 225.226 121.219 226.778L122.739 228.739L129.711 227.197L137.614 219.484L136.684 210.744L146.446 193.777L146.434 193.764C148.142 193.644 149.746 192.809 150.918 191.428C152.089 190.047 152.742 188.225 152.743 186.331Z" fill="#FFB9B9"/>
<path d="M18.7741 323.511L15.6118 310.521L59.4075 290.849L64.0746 310.021L18.7741 323.511Z" fill="#FFB8B8"/>
<path d="M8.19593 330.214L-2 288.329L-1.52102 288.186C2.38816 287.022 6.55527 287.624 10.0637 289.858C13.5722 292.092 16.1347 295.776 17.1875 300.099L17.1878 300.1L23.415 325.682L8.19593 330.214Z" fill="#270066"/>
<path d="M79.1008 321.435L69.2645 313.524L92.1755 267.794L106.693 279.471L79.1008 321.435Z" fill="#FFB8B8"/>
<path d="M74.6757 334L42.958 308.488L43.2498 308.044C45.6309 304.423 49.2151 301.996 53.2138 301.298C57.2126 300.599 61.2985 301.686 64.5728 304.319L64.5736 304.32L83.9456 319.902L74.6757 334Z" fill="#270066"/>
<path d="M162.716 257.531L137.963 230.935C135.803 228.614 132.957 227.234 129.95 227.048C126.943 226.862 123.976 227.883 121.596 229.924L74.8581 287.353L79.042 294.551L123.668 261.13L153.884 304.834L182.705 288.895L162.716 257.531Z" fill="#270066"/>
<path d="M152.025 263.187L133.895 261.645L120.766 258.124C120.024 256.845 118.947 255.846 117.678 255.262C116.409 254.679 115.009 254.538 113.666 254.858C112.323 255.178 111.1 255.945 110.161 257.056C109.223 258.166 108.613 259.567 108.415 261.071C108.216 262.575 108.437 264.11 109.049 265.471C109.661 266.832 110.634 267.954 111.838 268.686C113.043 269.418 114.42 269.726 115.787 269.569C117.154 269.411 118.445 268.796 119.486 267.804L119.484 267.815L127.387 271.414L161.322 284.268L165.505 280.669L152.025 263.187Z" fill="#FFB9B9"/>
<path d="M195.721 318.716L185.494 325.914H173.408L117.16 302.777L34.8804 319.23L32.5562 299.692L107.863 263.188L173.873 287.352L195.721 318.716Z" fill="#270066"/>
<path d="M173.873 193.777C183.886 193.777 192.002 184.799 192.002 173.724C192.002 162.65 183.886 153.672 173.873 153.672C163.86 153.672 155.743 162.65 155.743 173.724C155.743 184.799 163.86 193.777 173.873 193.777Z" fill="#FFB9B9"/>
<path d="M220.782 253.783C220.782 265.885 219.057 277.911 215.673 289.42L214.316 294.037L207.808 326.943L200.835 328.999L195.721 321.801L185.494 313.575L178.057 300.207L171.679 288.453L169.689 284.782L162.716 246.22L136.22 229.767L127.387 228.225L129.247 222.569L137.149 210.744L145.052 209.715L147.376 207.659L149.236 208.687L159.486 213.054L192.718 197.525L197.581 198.404L214.316 213.829C218.594 226.618 220.783 240.147 220.782 253.783Z" fill="#C0A200"/>
<path opacity="0.1" d="M215.71 249.305L198.045 262.159L171.679 288.452L169.689 284.782L164.111 253.933H165.506L179.916 224.626L215.71 249.305Z" fill="black"/>
<path d="M179.916 221.541L165.506 250.847L157.138 261.131L149.701 263.188L169.689 287.353L198.045 259.074L215.71 246.22L179.916 221.541Z" fill="#C0A200"/>
<path d="M159.772 158.815L157.808 159.651C157.509 159.428 157.254 159.141 157.056 158.809C156.858 158.476 156.72 158.104 156.652 157.713C156.584 157.322 156.586 156.92 156.659 156.53C156.731 156.139 156.872 155.769 157.074 155.439C157.085 155.422 157.096 155.405 157.107 155.387L153.477 155.2C155.807 151.767 158.769 148.921 162.169 146.85C165.568 144.778 169.326 143.529 173.194 143.184C177.062 142.839 180.953 143.407 184.608 144.849C188.263 146.292 191.599 148.576 194.397 151.552C194.562 150.922 196.363 152.147 197.099 153.389C197.346 152.364 199.035 157.317 199.633 160.817C199.909 159.652 200.973 161.533 200.041 163.339C200.632 163.243 200.898 164.914 200.441 165.845C201.087 165.509 200.978 167.503 200.278 168.836C201.2 168.745 200.199 189.74 186.369 188.211C185.406 183.318 185.677 183.622 184.543 177.33C184.016 176.71 183.438 176.146 182.861 175.582L179.74 172.536C176.112 168.993 172.811 164.621 167.977 163.297C164.655 162.387 162.554 162.181 164.365 158.041C162.729 158.796 161.202 159.919 159.551 160.62C159.573 160.041 159.804 159.394 159.772 158.815Z" fill="#270066"/>
<path d="M182.938 179.637C184.735 179.637 186.192 178.026 186.192 176.038C186.192 174.051 184.735 172.439 182.938 172.439C181.14 172.439 179.684 174.051 179.684 176.038C179.684 178.026 181.14 179.637 182.938 179.637Z" fill="#FFB9B9"/>
<path d="M31.1915 91.0356L30.1985 107.528L45.1095 108.626L46.1025 92.1339L31.1915 91.0356Z" fill="#E6E6E6"/>
<path d="M21.571 99.7928L39.6772 101.126L38.4713 121.153L20.3652 119.819L21.571 99.7928ZM38.8375 101.939L22.3058 100.721L21.2049 119.006L37.7365 120.224L38.8375 101.939Z" fill="#C0A200"/>
<path d="M115.456 42.1313L100.845 45.6036L103.985 61.7634L118.595 58.2912L115.456 42.1313Z" fill="#E6E6E6"/>
<path d="M105.201 34.3041L109.013 53.9268L91.2716 58.1431L87.4595 38.5204L105.201 34.3041ZM108.076 53.2569L104.595 35.3406L88.3966 39.1903L91.8772 57.1066L108.076 53.2569Z" fill="#C0A200"/>
<path d="M100.103 119.737L89.1968 131.036L99.4128 143.099L110.319 131.8L100.103 119.737Z" fill="#E6E6E6"/>
<path d="M111.104 118.046L97.8599 131.767L85.4548 117.119L98.6986 103.398L111.104 118.046ZM97.8964 130.534L109.989 118.006L98.6621 104.632L86.57 117.159L97.8964 130.534Z" fill="#C0A200"/>
<path d="M664.131 0H221.981C220.383 -2.00885e-06 218.801 0.34816 217.324 1.02461C215.848 1.70105 214.506 2.69253 213.376 3.94244C212.246 5.19236 211.35 6.67622 210.738 8.30931C210.126 9.9424 209.812 11.6927 209.812 13.4604V285.943C209.812 287.711 210.126 289.461 210.738 291.095C211.35 292.728 212.246 294.211 213.376 295.461C214.506 296.711 215.848 297.703 217.324 298.379C218.801 299.056 220.383 299.404 221.981 299.404H664.131C667.359 299.404 670.454 297.986 672.737 295.461C675.019 292.937 676.301 289.513 676.301 285.943V13.4604C676.301 9.89046 675.019 6.46677 672.737 3.94246C670.454 1.41815 667.359 2.02854e-06 664.131 0Z" fill="#4F138C"/>
<path d="M659.985 23.7883H226.128V294.482H659.985V23.7883Z" fill="white"/>
<path d="M442.686 16.4057C445.143 16.4057 447.135 14.2022 447.135 11.484C447.135 8.76581 445.143 6.56229 442.686 6.56229C440.228 6.56229 438.236 8.76581 438.236 11.484C438.236 14.2022 440.228 16.4057 442.686 16.4057Z" fill="white"/>
<path d="M535.909 294.483H226.128V23.7887L535.909 294.483Z" fill="#F2F2F2"/>
<path d="M294.013 274.226C317.046 274.226 335.717 253.575 335.717 228.1C335.717 202.625 317.046 181.974 294.013 181.974C270.981 181.974 252.31 202.625 252.31 228.1C252.31 253.575 270.981 274.226 294.013 274.226Z" fill="#B387EA"/>
<path d="M303.297 262.768C293.037 262.768 283.007 259.403 274.477 253.098C265.946 246.794 259.297 237.833 255.37 227.349C251.444 216.864 250.417 205.328 252.418 194.198C254.42 183.068 259.361 172.844 266.616 164.82C273.87 156.796 283.114 151.331 293.177 149.117C303.239 146.904 313.67 148.04 323.149 152.383C332.628 156.725 340.73 164.079 346.43 173.515C352.13 182.95 355.172 194.044 355.172 205.392C355.172 212.926 353.831 220.387 351.224 227.349C348.617 234.31 344.796 240.635 339.978 245.963C335.161 251.291 329.443 255.517 323.149 258.401C316.855 261.284 310.109 262.768 303.297 262.768ZM303.297 148.765C293.171 148.765 283.273 152.086 274.853 158.308C266.434 164.53 259.872 173.374 255.997 183.721C252.122 194.069 251.108 205.454 253.083 216.439C255.059 227.423 259.935 237.513 267.095 245.432C274.255 253.352 283.378 258.745 293.309 260.93C303.24 263.115 313.534 261.994 322.889 257.708C332.244 253.422 340.24 246.164 345.866 236.852C351.492 227.539 354.494 216.591 354.494 205.392C354.494 197.955 353.17 190.592 350.597 183.722C348.024 176.851 344.253 170.609 339.499 165.351C334.745 160.092 329.101 155.921 322.889 153.075C316.678 150.23 310.02 148.765 303.297 148.765L303.297 148.765Z" fill="#4F138C"/>
<path d="M559.548 164.422H519.021V173.788H559.548V164.422Z" fill="#4F138C"/>
<path d="M597.891 113.679H480.679V117.693H597.891V113.679Z" fill="#4F138C"/>
<path d="M597.891 129.45H480.679V133.464H597.891V129.45Z" fill="#4F138C"/>
<path d="M597.891 145.221H480.679V149.235H597.891V145.221Z" fill="#4F138C"/>
<path d="M629.29 39.9881H612.353V58.7209H629.29V39.9881Z" fill="#45526E"/>
<path d="M637.153 67.4182H616.587V44.6713H637.153V67.4182ZM617.481 66.4292H636.259V45.6603H617.481L617.481 66.4292Z" fill="#FFD600"/>
<path d="M688.483 289.56H646.141V286.186C646.141 286.098 646.125 286.011 646.095 285.93C646.065 285.849 646.02 285.775 645.964 285.713C645.908 285.651 645.841 285.602 645.768 285.568C645.694 285.535 645.616 285.517 645.536 285.517H631.019C630.94 285.517 630.861 285.535 630.788 285.568C630.714 285.602 630.647 285.651 630.591 285.713C630.535 285.775 630.491 285.849 630.46 285.93C630.43 286.011 630.414 286.098 630.414 286.186V289.56H621.341V286.186C621.341 286.098 621.325 286.011 621.295 285.93C621.264 285.849 621.22 285.775 621.164 285.713C621.108 285.651 621.041 285.602 620.968 285.568C620.894 285.535 620.816 285.517 620.736 285.517H606.219C606.14 285.517 606.061 285.535 605.987 285.568C605.914 285.602 605.847 285.651 605.791 285.713C605.735 285.775 605.69 285.849 605.66 285.93C605.63 286.011 605.614 286.098 605.614 286.186V289.56H596.541V286.186C596.541 286.098 596.525 286.011 596.495 285.93C596.464 285.849 596.42 285.775 596.364 285.713C596.308 285.651 596.241 285.602 596.167 285.568C596.094 285.535 596.015 285.517 595.936 285.517H581.419C581.339 285.517 581.261 285.535 581.187 285.568C581.114 285.602 581.047 285.651 580.991 285.713C580.935 285.775 580.89 285.849 580.86 285.93C580.83 286.011 580.814 286.098 580.814 286.186V289.56H571.741V286.186C571.741 286.098 571.725 286.011 571.695 285.93C571.664 285.849 571.62 285.775 571.564 285.713C571.507 285.651 571.441 285.602 571.367 285.568C571.294 285.535 571.215 285.517 571.136 285.517H556.619C556.539 285.517 556.461 285.535 556.387 285.568C556.314 285.602 556.247 285.651 556.191 285.713C556.135 285.775 556.09 285.849 556.06 285.93C556.03 286.011 556.014 286.098 556.014 286.186V289.56H546.941V286.186C546.941 286.098 546.925 286.011 546.895 285.93C546.864 285.849 546.82 285.775 546.763 285.713C546.707 285.651 546.641 285.602 546.567 285.568C546.494 285.535 546.415 285.517 546.336 285.517H531.819C531.739 285.517 531.661 285.535 531.587 285.568C531.514 285.602 531.447 285.651 531.391 285.713C531.335 285.775 531.29 285.849 531.26 285.93C531.229 286.011 531.214 286.098 531.214 286.186V289.56H522.141V286.186C522.141 286.098 522.125 286.011 522.094 285.93C522.064 285.849 522.02 285.775 521.963 285.713C521.907 285.651 521.841 285.602 521.767 285.568C521.694 285.535 521.615 285.517 521.536 285.517H507.018C506.939 285.517 506.86 285.535 506.787 285.568C506.714 285.602 506.647 285.651 506.591 285.713C506.535 285.775 506.49 285.849 506.46 285.93C506.429 286.011 506.414 286.098 506.414 286.186V289.56H497.34V286.186C497.34 286.098 497.325 286.011 497.294 285.93C497.264 285.849 497.219 285.775 497.163 285.713C497.107 285.651 497.04 285.602 496.967 285.568C496.894 285.535 496.815 285.517 496.736 285.517H383.018C382.938 285.517 382.86 285.535 382.786 285.568C382.713 285.602 382.646 285.651 382.59 285.713C382.534 285.775 382.489 285.849 382.459 285.93C382.429 286.011 382.413 286.098 382.413 286.186V289.56H373.34V286.186C373.34 286.098 373.324 286.011 373.294 285.93C373.263 285.849 373.219 285.775 373.163 285.713C373.106 285.651 373.04 285.602 372.966 285.568C372.893 285.535 372.814 285.517 372.735 285.517H358.218C358.138 285.517 358.06 285.535 357.986 285.568C357.913 285.602 357.846 285.651 357.79 285.713C357.734 285.775 357.689 285.849 357.659 285.93C357.629 286.011 357.613 286.098 357.613 286.186V289.56H348.54V286.186C348.54 286.098 348.524 286.011 348.494 285.93C348.463 285.849 348.419 285.775 348.363 285.713C348.306 285.651 348.24 285.602 348.166 285.568C348.093 285.535 348.014 285.517 347.935 285.517H333.418C333.338 285.517 333.26 285.535 333.186 285.568C333.113 285.602 333.046 285.651 332.99 285.713C332.934 285.775 332.889 285.849 332.859 285.93C332.828 286.011 332.813 286.098 332.813 286.186V289.56H323.74V286.186C323.74 286.098 323.724 286.011 323.694 285.93C323.663 285.849 323.619 285.775 323.562 285.713C323.506 285.651 323.44 285.602 323.366 285.568C323.293 285.535 323.214 285.517 323.135 285.517H308.618C308.538 285.517 308.459 285.535 308.386 285.568C308.313 285.602 308.246 285.651 308.19 285.713C308.134 285.775 308.089 285.849 308.059 285.93C308.028 286.011 308.013 286.098 308.013 286.186V289.56H298.939V286.186C298.939 286.098 298.924 286.011 298.893 285.93C298.863 285.849 298.818 285.775 298.762 285.713C298.706 285.651 298.639 285.602 298.566 285.568C298.493 285.535 298.414 285.517 298.335 285.517H283.817C283.738 285.517 283.659 285.535 283.586 285.568C283.513 285.602 283.446 285.651 283.39 285.713C283.334 285.775 283.289 285.849 283.259 285.93C283.228 286.011 283.213 286.098 283.213 286.186V289.56H274.139V286.186C274.139 286.098 274.124 286.011 274.093 285.93C274.063 285.849 274.018 285.775 273.962 285.713C273.906 285.651 273.839 285.602 273.766 285.568C273.693 285.535 273.614 285.517 273.534 285.517H259.017C258.857 285.517 258.703 285.588 258.59 285.713C258.476 285.839 258.412 286.009 258.412 286.186V289.56H249.339V286.186C249.339 286.098 249.324 286.011 249.293 285.93C249.263 285.849 249.218 285.775 249.162 285.713C249.106 285.651 249.039 285.602 248.966 285.568C248.892 285.535 248.814 285.517 248.734 285.517H234.217C234.057 285.517 233.903 285.588 233.789 285.713C233.676 285.839 233.612 286.009 233.612 286.186V289.56H205.788C201.938 289.56 198.245 291.252 195.523 294.263C192.8 297.275 191.271 301.359 191.271 305.617V312.878C191.271 317.136 192.8 321.22 195.523 324.231C198.245 327.242 201.938 328.934 205.788 328.934H688.483C692.333 328.934 696.025 327.242 698.748 324.231C701.47 321.22 703 317.136 703 312.878V305.617C703 303.509 702.624 301.421 701.895 299.472C701.165 297.524 700.096 295.754 698.748 294.263C697.4 292.772 695.8 291.59 694.038 290.783C692.277 289.976 690.389 289.56 688.483 289.56Z" fill="#4F138C"/>
</g>
<path d="M387.805 66.0195H379.072L377.412 71H372.116L381.114 46.8281H385.729L394.777 71H389.481L387.805 66.0195ZM380.417 61.9854H386.46L383.422 52.9375L380.417 61.9854ZM412.906 62.1846C412.906 65.0622 412.292 67.3089 411.063 68.9248C409.835 70.5296 408.119 71.332 405.917 71.332C403.969 71.332 402.414 70.585 401.252 69.0908L401.036 71H396.72V45.5H401.518V54.6475C402.624 53.3525 404.08 52.7051 405.884 52.7051C408.075 52.7051 409.791 53.513 411.03 55.1289C412.281 56.7337 412.906 58.9971 412.906 61.9189V62.1846ZM408.108 61.8359C408.108 60.0208 407.821 58.6982 407.245 57.8682C406.67 57.027 405.812 56.6064 404.672 56.6064C403.145 56.6064 402.093 57.2318 401.518 58.4824V65.5713C402.104 66.833 403.167 67.4639 404.705 67.4639C406.255 67.4639 407.273 66.7002 407.76 65.1729C407.992 64.4424 408.108 63.3301 408.108 61.8359ZM415.131 61.8525C415.131 60.0706 415.474 58.4824 416.16 57.0879C416.846 55.6934 417.831 54.6143 419.115 53.8506C420.41 53.0869 421.91 52.7051 423.614 52.7051C426.038 52.7051 428.014 53.4466 429.541 54.9297C431.079 56.4128 431.937 58.4271 432.114 60.9727L432.147 62.2012C432.147 64.957 431.378 67.1706 429.84 68.8418C428.301 70.502 426.237 71.332 423.647 71.332C421.058 71.332 418.988 70.502 417.438 68.8418C415.9 67.1816 415.131 64.9238 415.131 62.0684V61.8525ZM419.929 62.2012C419.929 63.9056 420.25 65.2116 420.892 66.1191C421.534 67.0156 422.452 67.4639 423.647 67.4639C424.81 67.4639 425.717 67.0212 426.37 66.1357C427.023 65.2393 427.35 63.8115 427.35 61.8525C427.35 60.1813 427.023 58.8864 426.37 57.9678C425.717 57.0492 424.799 56.5898 423.614 56.5898C422.441 56.5898 421.534 57.0492 420.892 57.9678C420.25 58.8753 419.929 60.2865 419.929 62.2012ZM445.86 69.1738C444.676 70.6126 443.038 71.332 440.946 71.332C439.021 71.332 437.549 70.7786 436.53 69.6719C435.523 68.5651 435.008 66.9437 434.986 64.8076V53.0371H439.784V64.6416C439.784 66.512 440.636 67.4473 442.341 67.4473C443.968 67.4473 445.086 66.8828 445.694 65.7539V53.0371H450.509V71H445.993L445.86 69.1738ZM459.872 48.6211V53.0371H462.943V56.5566H459.872V65.5215C459.872 66.1855 459.999 66.6615 460.254 66.9492C460.508 67.237 460.995 67.3809 461.715 67.3809C462.246 67.3809 462.716 67.3421 463.126 67.2646V70.9004C462.185 71.1882 461.217 71.332 460.221 71.332C456.856 71.332 455.141 69.6331 455.074 66.2354V56.5566H452.451V53.0371H455.074V48.6211H459.872ZM480.906 46.8281L487.115 64.3594L493.291 46.8281H499.832V71H494.835V64.3926L495.333 52.9873L488.809 71H485.389L478.881 53.0039L479.379 64.3926V71H474.398V46.8281H480.906ZM512.134 71.332C509.5 71.332 507.353 70.5241 505.692 68.9082C504.043 67.2923 503.219 65.1396 503.219 62.4502V61.9854C503.219 60.1813 503.567 58.571 504.265 57.1543C504.962 55.7266 505.947 54.6309 507.22 53.8672C508.504 53.0924 509.965 52.7051 511.603 52.7051C514.06 52.7051 515.991 53.4798 517.396 55.0293C518.813 56.5788 519.521 58.7757 519.521 61.6201V63.5791H508.083C508.238 64.7523 508.703 65.693 509.478 66.4014C510.263 67.1097 511.254 67.4639 512.449 67.4639C514.298 67.4639 515.742 66.7943 516.782 65.4551L519.14 68.0947C518.42 69.113 517.446 69.9098 516.218 70.4854C514.989 71.0498 513.628 71.332 512.134 71.332ZM511.586 56.5898C510.634 56.5898 509.859 56.9108 509.262 57.5527C508.675 58.1947 508.299 59.1133 508.133 60.3086H514.807V59.9268C514.785 58.8643 514.497 58.0452 513.943 57.4697C513.39 56.8831 512.604 56.5898 511.586 56.5898Z" fill="#3D3D3D"/>
<defs>
<clipPath id="clip0_335_2">
<rect width="705" height="334" fill="white" transform="translate(-2)"/>
</clipPath>
</defs>
</svg>
