<svg width="573" height="508" viewBox="0 0 573 508" fill="none" xmlns="http://www.w3.org/2000/svg">
<g clip-path="url(#clip0_107_2)">
<path opacity="0.18" d="M511.361 115.534C516.836 152.199 485.54 188.357 495.209 223.77C500.774 244.226 517.469 256.982 531.861 270.14C554.733 291.005 575.837 321.32 572.679 355.163C569.264 391.664 539.714 417.471 510.346 429.916C400.182 476.556 22.9474 558.486 0.590539 351.677C-3.66658 312.148 15.6365 272.979 37.2978 242.344C54.528 217.985 150.501 108.506 185.58 88.066C341.842 -3.01175 495.265 7.60894 511.361 115.534Z" fill="#9F62DD"/>
<path opacity="0.05" d="M319.973 62.6025C319.973 62.6025 526.568 60.4833 491.913 159.891C465.07 236.805 495.746 242.442 505.338 279.639C514.931 316.836 503.766 359.213 480.658 379.292C457.55 399.372 365.069 395.821 365.069 425.547C365.069 455.274 339.331 444.424 339.331 444.424H177.324L206.916 339.461L319.973 62.6025Z" fill="#000405"/>
<path d="M351.233 432.797H177.324V444.457H351.233V432.797Z" fill="#9F62DD"/>
<path d="M324.668 339.485H206.916V432.797H324.668V339.485Z" fill="#9F62DD"/>
<path d="M324.668 339.485H206.916V432.797H324.668V339.485Z" fill="#9F62DD"/>
<path d="M324.668 339.485H206.916V432.797H324.668V339.485Z" fill="url(#paint0_linear_107_2)"/>
<path d="M480.658 75.4897V319.864C480.658 326.868 479.485 333.804 477.205 340.275C474.926 346.745 471.584 352.624 467.373 357.576C463.161 362.527 458.161 366.454 452.658 369.131C447.156 371.809 441.259 373.184 435.304 373.18H90.2412C78.2201 373.18 66.6913 367.563 58.191 357.564C49.6908 347.565 44.9154 334.004 44.9154 319.864V75.4897C44.9145 68.4871 46.0862 61.5528 48.3635 55.0827C50.6408 48.6127 53.9793 42.7337 58.1881 37.7813C62.397 32.8289 67.394 28.9001 72.8936 26.2194C78.3933 23.5386 84.288 22.1582 90.2412 22.1571H435.263C441.219 22.1485 447.119 23.5206 452.624 26.1949C458.13 28.8692 463.133 32.7934 467.349 37.7432C471.565 42.6929 474.91 48.5713 477.194 55.0424C479.477 61.5135 480.654 68.4505 480.658 75.457V75.4897Z" fill="#410083"/>
<path d="M480.658 75.4897V307.05H44.9641V75.4897C44.9632 68.4871 46.1349 61.5528 48.4122 55.0827C50.6895 48.6127 54.028 42.7337 58.2369 37.7813C62.4457 32.8289 67.4427 28.9001 72.9424 26.2194C78.442 23.5386 84.3367 22.1582 90.2899 22.1571H435.263C441.219 22.1485 447.119 23.5206 452.624 26.1949C458.13 28.8692 463.133 32.7934 467.349 37.7432C471.565 42.6929 474.91 48.5713 477.193 55.0424C479.477 61.5135 480.654 68.4505 480.658 75.457V75.4897Z" fill="url(#paint1_linear_107_2)"/>
<path d="M405.4 70.4739H97.566V141.881H405.4V70.4739Z" fill="url(#paint2_linear_107_2)"/>
<path d="M237.397 150.996H97.566V294.818H237.397V150.996Z" fill="url(#paint3_linear_107_2)"/>
<path d="M402.917 150.996H247.275V199.027H402.917V150.996Z" fill="url(#paint4_linear_107_2)"/>
<path d="M402.917 208.142H247.275V256.172H402.917V208.142Z" fill="url(#paint5_linear_107_2)"/>
<path d="M402.917 265.288H247.275V294.818H402.917V265.288Z" fill="url(#paint6_linear_107_2)"/>
<path d="M335.972 466.762H342.615L322.143 163.826L316.529 165.602L317.802 185.395L297.63 186.892L296.079 163.826L290.465 165.602L309.886 466.762H316.529L314.213 432.396L333.69 430.988L333.398 425.547L313.844 426.963L312.182 402.416L332.174 400.926L331.888 395.501L311.82 396.958L310.165 372.362L329.767 370.897L335.972 466.762ZM297.998 192.293L318.171 190.779L319.757 215.375L299.675 216.897L297.998 192.293ZM300.023 222.289L320.091 220.776L321.677 245.478L301.706 246.951L300.023 222.289ZM302.061 252.343L322.025 250.838L323.722 277.095L303.793 278.518L302.061 252.343ZM304.189 283.927L324.07 282.528L325.544 305.438L305.741 306.903L304.189 283.927ZM306.102 312.336L325.892 310.855L327.478 335.484L307.765 336.949L306.102 312.336ZM309.796 366.97L308.126 342.341L327.833 340.86L329.419 365.505L309.796 366.97Z" fill="#9F62DD"/>
<path d="M166.814 183.063V163.826H162.717V183.063H142.787V189.02H162.717V455.347H166.814V220.031L191.104 189.02H209.705V183.03L166.814 183.063ZM166.814 211.611V189.02H185.289L166.814 211.611Z" fill="#9F62DD"/>
<path d="M369.18 183.063V163.826H365.083V183.063H325.718V189.02H342.809L365.069 217.413V455.347H369.18V189.02H392.65V183.03L369.18 183.063ZM365.083 209.14L348.618 189.02H365.069L365.083 209.14Z" fill="#9F62DD"/>
<g opacity="0.61">
<path opacity="0.61" d="M335.972 466.762H342.615L322.143 163.826L316.529 165.602L317.802 185.395L297.63 186.892L296.079 163.826L290.465 165.602L309.886 466.762H316.529L314.213 432.396L333.69 430.988L333.398 425.547L313.844 426.963L312.182 402.416L332.174 400.926L331.888 395.501L311.82 396.958L310.165 372.362L329.767 370.897L335.972 466.762ZM297.998 192.293L318.171 190.779L319.757 215.375L299.675 216.897L297.998 192.293ZM300.023 222.289L320.091 220.776L321.677 245.478L301.706 246.951L300.023 222.289ZM302.061 252.343L322.025 250.838L323.722 277.095L303.793 278.518L302.061 252.343ZM304.189 283.927L324.07 282.528L325.544 305.438L305.741 306.903L304.189 283.927ZM306.102 312.336L325.892 310.855L327.478 335.484L307.765 336.949L306.102 312.336ZM309.796 366.97L308.126 342.341L327.833 340.86L329.419 365.505L309.796 366.97Z" fill="url(#paint7_linear_107_2)"/>
<path opacity="0.61" d="M166.814 183.063V163.826H162.717V183.063H142.787V189.02H162.717V455.347H166.814V220.031L191.104 189.02H209.705V183.03L166.814 183.063ZM166.814 211.611V189.02H185.289L166.814 211.611Z" fill="url(#paint8_linear_107_2)"/>
<path opacity="0.61" d="M369.18 183.063V163.826H365.083V183.063H325.718V189.02H342.809L365.069 217.413V455.347H369.18V189.02H392.65V183.03L369.18 183.063ZM365.083 209.14L348.618 189.02H365.069L365.083 209.14Z" fill="url(#paint9_linear_107_2)"/>
</g>
<path d="M326.33 244.365L325.857 249.357H316.056C316.056 249.357 315.256 246.476 317.044 245.756C318.025 245.349 319.035 245.05 320.063 244.864L326.33 244.365Z" fill="#9F62DD"/>
<path d="M312.662 140.989C312.21 145.456 312.446 149.982 313.357 154.351C313.904 155.18 314.628 155.822 315.456 156.212C316.284 156.602 317.185 156.725 318.067 156.569V159.891H322.755L324.758 143.256C324.758 143.256 317.378 132.177 312.662 140.989Z" fill="url(#paint10_linear_107_2)"/>
<path d="M315.966 142.65C316.705 144.388 317.176 146.267 317.357 148.198C317.357 148.198 318.296 145.981 318.748 147.085C319.2 148.19 317.809 150.416 317.809 150.416L319.201 153.181H323.965C323.965 153.181 326.324 141.047 325.002 139.378C323.68 137.708 322.79 137.741 322.79 137.741C322.79 137.741 322.79 136.105 319.959 136.105C317.128 136.105 313.364 136.105 311.952 138.878C310.54 141.652 310.067 140.515 310.067 140.515C310.067 140.515 310.867 142.569 312.091 142.07C312.384 141.988 315.493 140.989 315.966 142.65Z" fill="#FFD600"/>
<path d="M318.081 159.891H326.004C326.004 159.891 329.349 160.709 329.816 170.143C330.101 176.589 330.101 183.048 329.816 189.494V204.959L326.004 203.462L311.862 207.177L310.471 184.503C309.004 184.292 307.593 183.709 306.337 182.794C305.081 181.878 304.008 180.652 303.195 179.201C302.165 177.385 301.517 175.308 301.304 173.14C301.091 170.972 301.32 168.775 301.97 166.731L311.813 172.827L312.335 169.554C312.874 166.007 314.563 162.845 317.044 160.733L318.081 159.891Z" fill="#9F62DD"/>
<path d="M303.285 163.663L300.934 154.793L310.311 153.124L313.469 165.209L311.813 172.827L306.193 169.382L303.285 163.663Z" fill="#FCFDFF"/>
<path d="M301.4 168.621C301.56 166.766 302.22 165.02 303.285 163.638L303.758 164.186H306.756L307.229 166.355L306.144 168.179C305.491 168.826 304.683 169.216 303.832 169.295C302.981 169.375 302.131 169.139 301.4 168.621Z" fill="url(#paint11_linear_107_2)"/>
<path d="M306.193 169.382L308.426 176.354L311.813 172.827L306.193 169.382Z" fill="url(#paint12_linear_107_2)"/>
<path opacity="0.61" d="M310.311 184.11C310.311 184.11 317.886 180.78 317.886 175.241L319.778 200.696L311.758 202.93L310.311 184.11Z" fill="url(#paint13_linear_107_2)"/>
<path d="M311.723 202.905L310.311 230.513L312.196 244.922H317.851L318.79 221.144L322.087 211.161L319.736 244.922L326.331 245.478L329.579 200.688L325.857 199.027L311.723 202.905Z" fill="#FFD600"/>
<path d="M317.566 244.922V250.445L307.626 246.272C307.626 246.272 307.626 243.22 309.552 243.22C310.596 243.213 311.637 243.325 312.662 243.555L317.566 244.922Z" fill="#9F62DD"/>
<path d="M187.807 463.881L188.294 468.856H198.102C198.102 468.856 198.902 465.976 197.107 465.256C196.13 464.848 195.121 464.552 194.095 464.372L187.807 463.881Z" fill="#9F62DD"/>
<path d="M194.617 359.442C196.321 363.436 197.407 367.756 197.824 372.198C197.26 375.357 193.956 376.077 193.956 376.077L194.854 379.235L190.144 381.174L183.731 366.209C183.731 366.209 187.738 352.847 194.617 359.442Z" fill="url(#paint14_linear_107_2)"/>
<path d="M191.932 362.273C191.661 364.106 191.661 365.98 191.932 367.812C191.932 367.812 190.423 366.094 190.283 367.313C190.144 368.532 192.071 370.087 192.071 370.087L191.508 373.245L187.223 374.964C187.223 374.964 181.658 364.327 182.507 362.273C183.355 360.219 183.78 359.998 183.78 359.998C183.78 359.998 183.307 358.444 185.992 357.339C188.677 356.234 192.252 354.884 194.339 356.954C196.426 359.025 196.551 357.773 196.551 357.773C196.551 357.773 196.551 359.99 195.041 360.047C195.187 360.277 191.932 360.497 191.932 362.273Z" fill="#FFD600"/>
<path d="M196.314 379.292H188.398C188.398 379.292 185.053 380.111 184.579 389.545C184.294 395.988 184.294 402.445 184.579 408.888V424.352L188.398 422.855L202.533 426.57L203.924 403.905C205.387 403.621 206.78 402.969 208.008 401.994C209.237 401.018 210.271 399.741 211.04 398.251C212.067 396.432 212.713 394.353 212.926 392.185C213.138 390.016 212.912 387.819 212.265 385.773L202.415 391.869L201.893 388.596C201.352 385.052 199.664 381.893 197.184 379.783L196.314 379.292Z" fill="#9F62DD"/>
<path d="M210.881 383.113L213.232 374.301L203.806 372.64L200.697 384.725L202.394 391.983L208.049 388.661L210.881 383.113Z" fill="#FCFDFF"/>
<path d="M212.759 388.162C212.605 386.302 211.944 384.551 210.873 383.171L210.407 383.727H207.437L206.964 385.887L208.049 387.712C208.698 388.351 209.5 388.737 210.343 388.818C211.187 388.898 212.03 388.669 212.759 388.162Z" fill="url(#paint15_linear_107_2)"/>
<path opacity="0.61" d="M203.806 403.79C203.806 403.79 196.266 400.468 196.266 394.921L196.878 424.966L202.394 426.406L203.806 403.79Z" fill="url(#paint16_linear_107_2)"/>
<path d="M202.394 422.413L203.806 450.02L201.97 464.43H196.314L195.375 440.652L192.071 430.669L194.429 464.43L187.835 464.986L184.538 420.196L188.301 418.535L202.394 422.413Z" fill="#FFD600"/>
<path d="M196.6 464.43V468.316L206.915 467.76C206.915 467.76 206.449 463.881 204.564 463.881C203.546 463.917 202.538 463.635 201.643 463.063L196.6 464.43Z" fill="#9F62DD"/>
<path d="M363.274 141.562H339.192C335.906 141.56 332.755 140.023 330.432 137.289C328.108 134.554 326.803 130.847 326.803 126.981V120.771C326.803 116.906 328.109 113.199 330.432 110.466C332.755 107.733 335.907 106.198 339.192 106.198H363.274C364.901 106.197 366.512 106.573 368.016 107.304C369.519 108.036 370.885 109.108 372.036 110.461C373.187 111.813 374.101 113.419 374.724 115.187C375.348 116.954 375.669 118.849 375.67 120.763V126.973C375.67 128.888 375.349 130.784 374.726 132.553C374.103 134.322 373.19 135.929 372.039 137.283C370.888 138.637 369.522 139.711 368.018 140.444C366.514 141.177 364.902 141.554 363.274 141.554V141.562Z" fill="white"/>
<path d="M329.579 149.245C329.579 149.245 339.429 149.802 341.787 141.489H349.091C349.091 141.489 344.194 152.019 329.579 149.245Z" fill="white"/>
<path opacity="0.15" d="M335.144 111.664H368.227C368.452 111.664 368.668 111.769 368.827 111.956C368.986 112.143 369.076 112.397 369.076 112.662V113.48C369.076 113.745 368.986 113.999 368.827 114.186C368.668 114.373 368.452 114.479 368.227 114.479H335.144C335.032 114.479 334.922 114.453 334.819 114.403C334.716 114.352 334.623 114.279 334.544 114.186C334.465 114.094 334.402 113.983 334.36 113.862C334.317 113.741 334.295 113.611 334.295 113.48V112.662C334.295 112.531 334.317 112.401 334.36 112.28C334.402 112.159 334.465 112.049 334.544 111.956C334.623 111.864 334.716 111.79 334.819 111.74C334.922 111.69 335.032 111.664 335.144 111.664Z" fill="#7A11FF"/>
<path opacity="0.15" d="M335.144 118.316H368.227C368.452 118.316 368.668 118.421 368.827 118.609C368.986 118.796 369.076 119.05 369.076 119.314V120.133C369.076 120.397 368.986 120.651 368.827 120.839C368.668 121.026 368.452 121.131 368.227 121.131H335.144C335.032 121.131 334.922 121.105 334.819 121.055C334.716 121.005 334.623 120.931 334.544 120.839C334.465 120.746 334.402 120.636 334.36 120.515C334.317 120.394 334.295 120.264 334.295 120.133V119.314C334.295 119.183 334.317 119.054 334.36 118.932C334.402 118.811 334.465 118.701 334.544 118.609C334.623 118.516 334.716 118.442 334.819 118.392C334.922 118.342 335.032 118.316 335.144 118.316Z" fill="#7A11FF"/>
<path opacity="0.15" d="M335.144 124.911H368.227C368.452 124.911 368.668 125.016 368.827 125.204C368.986 125.391 369.076 125.645 369.076 125.909V126.728C369.076 126.859 369.054 126.989 369.011 127.11C368.968 127.231 368.906 127.341 368.827 127.433C368.748 127.526 368.655 127.6 368.552 127.65C368.449 127.7 368.338 127.726 368.227 127.726H335.144C335.032 127.726 334.922 127.7 334.819 127.65C334.716 127.6 334.623 127.526 334.544 127.433C334.465 127.341 334.402 127.231 334.36 127.11C334.317 126.989 334.295 126.859 334.295 126.728V125.909C334.295 125.778 334.317 125.648 334.36 125.527C334.402 125.406 334.465 125.296 334.544 125.204C334.623 125.111 334.716 125.037 334.819 124.987C334.922 124.937 335.032 124.911 335.144 124.911Z" fill="#7A11FF"/>
<path opacity="0.15" d="M335.144 131.563H353.181C353.405 131.566 353.619 131.672 353.777 131.859C353.934 132.046 354.023 132.298 354.023 132.562V133.38C354.023 133.643 353.934 133.896 353.777 134.083C353.619 134.27 353.405 134.376 353.181 134.378H335.144C335.032 134.378 334.922 134.352 334.819 134.302C334.716 134.252 334.623 134.178 334.544 134.086C334.465 133.993 334.402 133.883 334.36 133.762C334.317 133.641 334.295 133.511 334.295 133.38V132.562C334.295 132.431 334.317 132.301 334.36 132.18C334.402 132.058 334.465 131.948 334.544 131.856C334.623 131.763 334.716 131.69 334.819 131.639C334.922 131.589 335.032 131.563 335.144 131.563Z" fill="#7A11FF"/>
<path d="M143.726 362.658H167.808C171.048 362.647 174.155 361.144 176.464 358.47C178.772 355.796 180.097 352.165 180.155 348.355V341.874C180.155 338.009 178.85 334.303 176.527 331.57C174.204 328.837 171.052 327.302 167.767 327.302H143.726C140.439 327.302 137.286 328.838 134.961 331.572C132.637 334.307 131.331 338.015 131.331 341.883V348.363C131.394 352.18 132.729 355.816 135.046 358.489C137.364 361.161 140.481 362.658 143.726 362.658Z" fill="white"/>
<path d="M177.324 370.529C177.324 370.529 167.475 371.085 165.116 362.772H157.896C157.896 362.772 162.584 373.18 177.324 370.529Z" fill="white"/>
<path opacity="0.15" d="M171.766 335.541H138.683C138.458 335.541 138.242 335.436 138.083 335.249C137.924 335.062 137.835 334.808 137.835 334.543V333.766C137.835 333.501 137.924 333.247 138.083 333.06C138.242 332.873 138.458 332.767 138.683 332.767H171.766C171.992 332.767 172.207 332.873 172.367 333.06C172.526 333.247 172.615 333.501 172.615 333.766V334.543C172.615 334.808 172.526 335.062 172.367 335.249C172.207 335.436 171.992 335.541 171.766 335.541Z" fill="#7A11FF"/>
<path opacity="0.15" d="M171.766 342.259H138.683C138.458 342.259 138.242 342.154 138.083 341.967C137.924 341.779 137.835 341.525 137.835 341.261V340.451C137.837 340.187 137.927 339.936 138.086 339.75C138.245 339.565 138.459 339.461 138.683 339.461H171.766C171.99 339.461 172.205 339.565 172.364 339.75C172.523 339.936 172.613 340.187 172.615 340.451V341.269C172.615 341.534 172.526 341.788 172.367 341.975C172.207 342.162 171.992 342.267 171.766 342.267V342.259Z" fill="#7A11FF"/>
<path opacity="0.15" d="M171.766 348.854H138.683C138.459 348.854 138.245 348.75 138.086 348.564C137.927 348.379 137.837 348.127 137.835 347.864V347.087C137.835 346.822 137.924 346.568 138.083 346.381C138.242 346.194 138.458 346.088 138.683 346.088H171.766C171.992 346.088 172.207 346.194 172.367 346.381C172.526 346.568 172.615 346.822 172.615 347.087V347.864C172.613 348.127 172.523 348.379 172.364 348.564C172.205 348.75 171.99 348.854 171.766 348.854Z" fill="#7A11FF"/>
<path opacity="0.15" d="M171.766 355.506H153.722C153.497 355.506 153.281 355.401 153.122 355.214C152.963 355.027 152.874 354.773 152.874 354.508V353.739C152.872 353.606 152.893 353.475 152.934 353.352C152.976 353.229 153.038 353.117 153.117 353.022C153.196 352.928 153.291 352.853 153.394 352.802C153.498 352.75 153.61 352.724 153.722 352.724H171.773C171.999 352.724 172.214 352.829 172.374 353.017C172.533 353.204 172.622 353.458 172.622 353.722V354.492C172.622 354.623 172.6 354.752 172.557 354.874C172.515 354.995 172.452 355.105 172.374 355.197C172.295 355.29 172.201 355.364 172.098 355.414C171.995 355.464 171.885 355.49 171.773 355.49L171.766 355.506Z" fill="#7A11FF"/>
<path d="M208.049 388.661C208.049 388.661 206.47 396.418 204.571 395.313C204.037 394.966 203.569 394.493 203.198 393.922C202.827 393.352 202.56 392.697 202.415 391.999L208.049 388.661Z" fill="url(#paint17_linear_107_2)"/>
</g>
<defs>
<linearGradient id="paint0_linear_107_2" x1="265.792" y1="357.944" x2="265.792" y2="483.527" gradientUnits="userSpaceOnUse">
<stop stop-opacity="0.4"/>
<stop offset="1" stop-color="white" stop-opacity="0"/>
</linearGradient>
<linearGradient id="paint1_linear_107_2" x1="118.678" y1="-10.0895" x2="537.287" y2="391.371" gradientUnits="userSpaceOnUse">
<stop offset="0.02" stop-color="white" stop-opacity="0"/>
<stop offset="1" stop-color="white"/>
</linearGradient>
<linearGradient id="paint2_linear_107_2" x1="107646" y1="5145.57" x2="107945" y2="-51075.9" gradientUnits="userSpaceOnUse">
<stop offset="0.02" stop-color="white" stop-opacity="0"/>
<stop offset="1" stop-color="white"/>
</linearGradient>
<linearGradient id="paint3_linear_107_2" x1="32253.1" y1="21942.6" x2="34929" y2="-91232.6" gradientUnits="userSpaceOnUse">
<stop offset="0.02" stop-color="white" stop-opacity="0"/>
<stop offset="1" stop-color="white"/>
</linearGradient>
<linearGradient id="paint4_linear_107_2" x1="71159.4" y1="6708.46" x2="71427.7" y2="-31106.7" gradientUnits="userSpaceOnUse">
<stop offset="0.02" stop-color="white" stop-opacity="0"/>
<stop offset="1" stop-color="white"/>
</linearGradient>
<linearGradient id="paint5_linear_107_2" x1="71100.3" y1="10805.5" x2="71368.5" y2="-27009.6" gradientUnits="userSpaceOnUse">
<stop offset="0.02" stop-color="white" stop-opacity="0"/>
<stop offset="1" stop-color="white"/>
</linearGradient>
<linearGradient id="paint6_linear_107_2" x1="72013.9" y1="885.608" x2="72115.3" y2="-22364.3" gradientUnits="userSpaceOnUse">
<stop offset="0.02" stop-color="white" stop-opacity="0"/>
<stop offset="1" stop-color="white"/>
</linearGradient>
<linearGradient id="paint7_linear_107_2" x1="372.665" y1="494.14" x2="185.129" y2="66.2668" gradientUnits="userSpaceOnUse">
<stop offset="0.58"/>
<stop offset="0.78" stop-opacity="0.16"/>
</linearGradient>
<linearGradient id="paint8_linear_107_2" x1="24942.4" y1="-25647.4" x2="-56213.1" y2="24349.1" gradientUnits="userSpaceOnUse">
<stop offset="0.58"/>
<stop offset="0.78" stop-opacity="0.16"/>
</linearGradient>
<linearGradient id="paint9_linear_107_2" x1="41407.5" y1="770.192" x2="-39755.6" y2="50781.8" gradientUnits="userSpaceOnUse">
<stop offset="0.58"/>
<stop offset="0.78" stop-opacity="0.16"/>
</linearGradient>
<linearGradient id="paint10_linear_107_2" x1="312.439" y1="148.738" x2="324.758" y2="148.738" gradientUnits="userSpaceOnUse">
<stop stop-color="#ECC4D7"/>
<stop offset="0.42" stop-color="#EFD4D1"/>
<stop offset="1" stop-color="#F2EAC9"/>
</linearGradient>
<linearGradient id="paint11_linear_107_2" x1="2828.69" y1="2282.39" x2="2877.31" y2="2282.39" gradientUnits="userSpaceOnUse">
<stop stop-color="#ECC4D7"/>
<stop offset="0.42" stop-color="#EFD4D1"/>
<stop offset="1" stop-color="#F2EAC9"/>
</linearGradient>
<linearGradient id="paint12_linear_107_2" x1="304.391" y1="171.559" x2="316.44" y2="175.47" gradientUnits="userSpaceOnUse">
<stop stop-opacity="0"/>
<stop offset="0.91" stop-opacity="0.8"/>
<stop offset="1"/>
</linearGradient>
<linearGradient id="paint13_linear_107_2" x1="292.747" y1="190.525" x2="328.643" y2="188.827" gradientUnits="userSpaceOnUse">
<stop offset="0.36" stop-color="#00272E"/>
<stop offset="1" stop-color="#69B9EB" stop-opacity="0"/>
</linearGradient>
<linearGradient id="paint14_linear_107_2" x1="3909.92" y1="3315.96" x2="4195.44" y2="3315.96" gradientUnits="userSpaceOnUse">
<stop stop-color="#ECC4D7"/>
<stop offset="0.42" stop-color="#EFD4D1"/>
<stop offset="1" stop-color="#F2EAC9"/>
</linearGradient>
<linearGradient id="paint15_linear_107_2" x1="1932.54" y1="979.238" x2="1980.81" y2="979.238" gradientUnits="userSpaceOnUse">
<stop stop-color="#ECC4D7"/>
<stop offset="0.42" stop-color="#EFD4D1"/>
<stop offset="1" stop-color="#F2EAC9"/>
</linearGradient>
<linearGradient id="paint16_linear_107_2" x1="2523.98" y1="2674.17" x2="2256.34" y2="2682.17" gradientUnits="userSpaceOnUse">
<stop offset="0.36" stop-color="#00272E"/>
<stop offset="1" stop-color="#69B9EB" stop-opacity="0"/>
</linearGradient>
<linearGradient id="paint17_linear_107_2" x1="1869.02" y1="3418.96" x2="1833.26" y2="3498.19" gradientUnits="userSpaceOnUse">
<stop stop-opacity="0"/>
<stop offset="0.91" stop-opacity="0.8"/>
<stop offset="1"/>
</linearGradient>
<clipPath id="clip0_107_2">
<rect width="573" height="508" fill="white"/>
</clipPath>
</defs>
</svg>
