<svg width="366" height="311" viewBox="0 0 366 311" fill="none" xmlns="http://www.w3.org/2000/svg">
<g clip-path="url(#clip0_365_3)">
<path d="M265.718 176.48V262.391L281.643 285.811L282.855 287.593H345.69L346.959 176.48H265.718Z" fill="#E6E6E6"/>
<path opacity="0.1" d="M265.718 176.48V262.391L281.643 285.811L282.62 176.48H265.718Z" fill="black"/>
<path d="M114.025 174.189V260.101L98.1001 283.52L96.8882 285.301H34.0532L32.7836 174.189H114.025Z" fill="#E6E6E6"/>
<path opacity="0.1" d="M114.025 174.189V260.101L98.1001 283.52L97.1229 174.189H114.025Z" fill="black"/>
<path d="M366 172.471V177.625H24.5325V170.179L56.2672 155.288H338.074L366 172.471Z" fill="#E6E6E6"/>
<path opacity="0.1" d="M366 172.471V177.625H24.5325V170.179L366 172.471Z" fill="black"/>
<path d="M73.4045 198.244H58.1714L51.8245 194.235H80.386L73.4045 198.244Z" fill="#3F3D56"/>
<path d="M73.4045 214.854H58.1714L51.8245 210.845H80.386L73.4045 214.854Z" fill="#3F3D56"/>
<path d="M73.4045 238.337H58.1714L51.8245 234.327H80.386L73.4045 238.337Z" fill="#3F3D56"/>
<path d="M73.4045 261.819H58.1714L51.8245 257.81H80.386L73.4045 261.819Z" fill="#3F3D56"/>
<path d="M306.338 200.535H321.571L327.918 196.526H299.357L306.338 200.535Z" fill="#3F3D56"/>
<path d="M306.338 217.145H321.571L327.918 213.135H299.357L306.338 217.145Z" fill="#3F3D56"/>
<path d="M306.338 240.627H321.571L327.918 236.618H299.357L306.338 240.627Z" fill="#3F3D56"/>
<path d="M306.338 264.11H321.571L327.918 260.101H299.357L306.338 264.11Z" fill="#3F3D56"/>
<path d="M316.712 55.9398H188.473C187.836 55.9397 187.205 56.0529 186.617 56.2728C186.028 56.4927 185.494 56.8151 185.043 57.2215C184.593 57.6279 184.236 58.1104 183.992 58.6414C183.748 59.1724 183.623 59.7415 183.623 60.3163V138.269C183.623 138.844 183.748 139.413 183.992 139.944C184.236 140.475 184.593 140.958 185.043 141.364C185.494 141.77 186.028 142.093 186.617 142.313C187.205 142.533 187.836 142.646 188.473 142.646H237.153L235.33 153.153C235.33 153.153 224.907 158.15 232.235 158.297C239.564 158.444 274.089 158.297 274.089 158.297C274.089 158.297 280.766 158.297 270.181 153.006L268.465 142.646H316.712C317.349 142.646 317.979 142.533 318.568 142.313C319.156 142.093 319.691 141.77 320.141 141.364C320.592 140.958 320.949 140.475 321.192 139.944C321.436 139.413 321.562 138.844 321.562 138.269V60.3163C321.562 59.7415 321.436 59.1724 321.192 58.6414C320.949 58.1104 320.592 57.6279 320.141 57.2215C319.691 56.8151 319.156 56.4927 318.568 56.2728C317.979 56.0529 317.349 55.9397 316.712 55.9398Z" fill="#3F3D56"/>
<path d="M316.92 60.569H188.264V125.525H316.92V60.569Z" fill="#F2F2F2"/>
<path d="M252.592 59.2463C253.042 59.2463 253.407 58.9173 253.407 58.5115C253.407 58.1057 253.042 57.7767 252.592 57.7767C252.143 57.7767 251.778 58.1057 251.778 58.5115C251.778 58.9173 252.143 59.2463 252.592 59.2463Z" fill="#F2F2F2"/>
<path d="M252.592 139.486C254.301 139.486 255.686 138.236 255.686 136.694C255.686 135.152 254.301 133.902 252.592 133.902C250.883 133.902 249.498 135.152 249.498 136.694C249.498 138.236 250.883 139.486 252.592 139.486Z" fill="#F2F2F2"/>
<path d="M247.771 166.233V167.702H160.154V166.527L160.275 166.233L162.434 160.942H245.979L247.771 166.233Z" fill="#3F3D56"/>
<path d="M281.488 164.794C281.328 165.41 280.726 166.059 279.364 166.673C274.479 168.878 264.544 166.086 264.544 166.086C264.544 166.086 256.89 164.91 256.89 161.824C257.105 161.691 257.329 161.571 257.561 161.464C259.615 160.483 266.426 158.063 278.502 161.566C279.392 161.818 280.186 162.288 280.797 162.924C281.068 163.164 281.272 163.459 281.392 163.784C281.512 164.109 281.545 164.455 281.488 164.794Z" fill="#3F3D56"/>
<path opacity="0.1" d="M281.488 164.794C275.508 166.862 270.178 167.016 264.707 163.587C262.639 162.207 260.134 161.463 257.561 161.464C259.615 160.483 266.426 158.063 278.502 161.566C279.392 161.818 280.186 162.288 280.797 162.924C281.068 163.164 281.272 163.459 281.392 163.784C281.512 164.109 281.545 164.455 281.488 164.794Z" fill="black"/>
<path d="M273.99 163.587C275.159 163.587 276.107 163.324 276.107 162.999C276.107 162.675 275.159 162.412 273.99 162.412C272.821 162.412 271.873 162.675 271.873 162.999C271.873 163.324 272.821 163.587 273.99 163.587Z" fill="#F2F2F2"/>
<path opacity="0.1" d="M247.771 166.233V167.702H160.154V166.527L160.275 166.233H247.771Z" fill="black"/>
<path d="M48.7158 0.000141123C47.8266 -0.0657404 46.9362 0.113752 46.1626 0.514834C45.403 0.984249 44.9242 1.80661 44.4355 2.57187C42.5671 5.53271 40.0376 8.1111 37.0072 10.1437C34.8 11.6029 31.9938 13.4222 32.3715 16.1125C32.5707 17.001 32.9344 17.8527 33.4473 18.6321C35.4835 22.3413 41.04 25.2077 40.4935 29.4401C42.5165 26.3839 39.8105 24.8727 41.8336 21.8166C42.797 20.3612 44.4706 18.7183 45.9252 19.6323C46.4122 19.9383 46.732 20.4872 47.2391 20.7557C48.4491 21.3965 49.7364 20.1715 50.8075 19.3039C54.5009 16.3119 59.7533 17.0958 64.3494 18.028C66.5192 18.4681 68.9025 19.0455 70.1852 20.9169C71.8717 23.3773 68.5829 26.0347 67.752 28.8165C67.6842 29.0536 67.681 29.3019 67.7426 29.5403C67.8044 29.7787 67.9291 30.0001 68.1063 30.1855C68.2835 30.3708 68.5078 30.5148 68.76 30.6049C69.0122 30.695 69.2849 30.7287 69.5547 30.703C70.9338 30.5802 72.5675 30.4796 72.6491 29.9335C74.3842 29.9892 76.5102 29.8119 77.2536 28.1815C77.4809 27.5365 77.601 26.8646 77.61 26.1878C77.8829 23.4492 79.171 20.9507 80.0243 18.3441C80.8776 15.7376 81.2486 12.6829 79.8086 10.3719C79.2947 9.60297 78.6591 8.9059 77.9219 8.30272C69.7501 1.16642 59.0059 -0.0104518 48.7158 0.000141123Z" fill="#2F2E41"/>
<path d="M42.2707 34.7858C42.2707 34.7858 44.0479 48.1505 37.5314 49.2197C31.0149 50.2889 43.4555 68.4648 43.4555 68.4648L73.0761 71.6723L65.9671 50.2889C65.9671 50.2889 61.2278 48.6851 64.1899 37.9934C67.152 27.3016 42.2707 34.7858 42.2707 34.7858Z" fill="#FFB8B8"/>
<path d="M24.2021 264.391L26.572 293.793H39.0122L35.4581 264.391H24.2021Z" fill="#FFB8B8"/>
<path d="M115.433 208.794L117.21 233.385L130.836 228.039L125.504 207.725L115.433 208.794Z" fill="#FFB8B8"/>
<path d="M15.316 152.128C15.316 152.128 15.9084 183.134 19.4629 193.291C23.0174 203.448 22.4249 203.983 21.8325 205.586C21.2401 207.19 20.6477 206.121 20.6477 208.794C20.6477 211.467 19.4629 253.699 20.6477 257.441C21.8325 261.183 17.0932 267.598 20.6477 268.133C24.2022 268.668 40.7897 268.133 41.3821 264.925C41.9745 261.718 36.6428 260.649 39.0125 258.51C41.3821 256.372 44.9366 212.536 44.9366 212.536L53.2303 182.065L68.633 166.027H101.216L111.287 201.31C111.287 201.31 107.14 211.467 110.102 211.467C113.064 211.467 130.836 214.674 130.836 202.913C130.836 191.152 124.912 156.404 123.727 155.335C122.542 154.266 124.32 150.524 122.542 148.92C120.765 147.316 100.031 136.09 92.3295 133.952C84.6281 131.813 73.8244 129.268 73.8244 129.268L15.316 152.128Z" fill="#2F2E41"/>
<path d="M130.836 223.762C130.836 223.762 121.95 221.089 117.803 229.108C113.656 237.127 115.434 239.265 115.434 239.265C115.434 239.265 129.059 243.542 131.429 241.404C132.46 240.473 135.733 240.15 139.103 240.082C144.236 239.978 145.601 233.425 140.754 231.9C140.609 231.854 140.463 231.815 140.315 231.781C135.575 230.712 130.836 223.762 130.836 223.762Z" fill="#2F2E41"/>
<path d="M55.5999 43.6066C65.4153 43.6066 73.3723 36.4263 73.3723 27.569C73.3723 18.7116 65.4153 11.5314 55.5999 11.5314C45.7845 11.5314 37.8276 18.7116 37.8276 27.569C37.8276 36.4263 45.7845 43.6066 55.5999 43.6066Z" fill="#FFB8B8"/>
<path d="M32.4959 55.9021C32.4959 55.9021 61.5241 61.248 68.633 52.6946C75.7419 44.1412 78.704 76.751 78.704 76.751L82.2585 110.965L76.9268 129.675C76.9268 129.675 49.0834 149.989 40.1973 151.593C31.3111 153.197 17.6856 154.266 17.6856 154.266C17.6856 154.266 21.8325 94.9269 21.8325 93.8577C21.8325 92.7886 32.4959 55.9021 32.4959 55.9021Z" fill="#410083"/>
<path d="M41.324 45.876C41.324 45.876 34.8655 42.5374 33.0883 45.7449C31.311 48.9524 14.7235 56.9712 12.9463 56.9712C11.1691 56.9712 16.5008 101.342 14.1311 106.688C11.7615 112.034 0.505652 151.058 7.02218 154.266C13.5387 157.473 8.79941 151.058 15.3159 159.077C21.8325 167.096 53.8227 167.096 55.5999 163.889C57.3771 160.681 41.382 136.625 44.3441 114.172C47.3061 91.7194 52.0454 60.7133 47.8986 56.4366C43.7517 52.1599 41.324 45.876 41.324 45.876Z" fill="#2F2E41"/>
<path d="M62.7089 49.487L63.5341 46.9244C63.5341 46.9244 88.1826 54.2983 89.3675 59.1096C90.5523 63.9208 89.9599 97.5998 85.813 100.273C81.6661 102.946 75.742 107.222 79.8889 113.637C84.0358 120.052 88.775 127.002 92.3295 127.537C95.884 128.071 102.401 131.813 100.623 135.555C98.846 139.298 77.5192 132.348 77.5192 132.348C77.5192 132.348 63.3013 122.725 63.8937 107.757C64.4862 92.7885 62.7089 49.487 62.7089 49.487Z" fill="#2F2E41"/>
<path d="M83.4433 112.568L69.2254 136.625C69.2254 136.625 48.491 155.87 60.3392 158.008C72.1875 160.146 78.704 140.367 78.704 140.367L94.1067 120.587L83.4433 112.568Z" fill="#FFB8B8"/>
<path d="M49.5816 4.19623C48.8653 4.14833 48.1477 4.27392 47.5032 4.56001C46.9204 4.9441 46.4401 5.44083 46.0973 6.01392C44.5172 8.15877 42.4574 9.9817 40.0503 11.3657C38.2535 12.397 35.9692 13.6829 36.2766 15.5843C36.4435 16.2219 36.7405 16.8258 37.1524 17.3652C38.8157 20.0133 39.4778 23.0782 39.0387 26.0962L43.9792 19.616C44.7634 18.5873 46.1258 17.4261 47.3099 18.0721C47.7064 18.2884 47.9667 18.6764 48.3795 18.8662C49.3645 19.319 50.4124 18.4533 51.2843 17.84C54.2909 15.7253 58.5666 16.2793 62.308 16.9382C64.0744 17.2493 66.0145 17.6574 67.0586 18.98C68.7938 21.1781 66.9819 24.3541 67.9946 26.8934C68.2781 26.7143 68.5189 26.4857 68.7026 26.221C68.8863 25.9564 69.0093 25.6612 69.0643 25.3529C70.4767 25.3923 72.2074 25.267 72.8126 24.1147C72.9967 23.663 73.0948 23.1866 73.1027 22.7055C73.3248 20.7698 74.3734 19.0039 75.068 17.1616C75.7626 15.3193 76.0647 13.1603 74.8924 11.5269C74.4636 10.9735 73.946 10.4806 73.3566 10.0644C66.7044 5.02054 57.9582 4.18875 49.5816 4.19623Z" fill="#2F2E41"/>
<path d="M83.4433 56.9712L88.9628 58.2933C88.9628 58.2933 101.808 87.9772 98.846 108.292C95.8839 128.606 94.1067 124.329 94.1067 124.329C94.1067 124.329 89.3674 114.707 78.704 116.845L83.4433 56.9712Z" fill="#2F2E41"/>
<path d="M25.0229 289.907C23.5943 291.659 23.8807 294.163 22.6153 296.014C21.5184 297.619 19.4512 298.46 18.0791 299.882C17.6413 300.355 17.2511 300.861 16.9129 301.396C15.6402 303.32 14.6057 305.786 15.8591 307.72C16.8675 309.275 18.987 309.884 20.9308 310.298C23.3877 310.822 25.9404 311.241 28.4257 310.841C30.9109 310.44 33.3398 309.067 34.226 306.934C34.4001 306.398 34.6071 305.87 34.8461 305.355C36.1932 302.962 40.4183 302.936 41.7969 300.558C42.7616 298.893 41.8748 296.881 40.9883 295.182L38.2808 289.991C37.3823 288.269 33.7399 289.259 31.841 288.846C29.3645 288.308 26.8045 287.715 25.0229 289.907Z" fill="#2F2E41"/>
<path d="M5.245 123.26L30.1263 158.008C30.1263 158.008 45.529 175.649 50.2683 167.631C55.0075 159.612 33.6807 146.247 33.6807 146.247L17.6856 119.518L5.245 123.26Z" fill="#FFB8B8"/>
<path d="M17.6856 58.0404L12.9463 56.9712C12.9463 56.9712 3.46773 59.6441 1.09808 70.8704C-1.27156 82.0968 0.505669 127.002 3.46773 127.537C6.42978 128.071 18.0973 119.718 19.9649 121.489C21.8325 123.26 15.9084 114.172 17.6856 109.361C19.4628 104.549 17.6856 58.0404 17.6856 58.0404Z" fill="#2F2E41"/>
<path d="M240.415 81.9027H225.104V85.229H240.415V81.9027Z" fill="#410083"/>
<path d="M293.438 81.9027H288.051V85.229H293.438V81.9027Z" fill="#410083"/>
<path d="M304.213 81.9027H298.826V85.229H304.213V81.9027Z" fill="#410083"/>
<path d="M282.38 81.9027H245.802V85.229H282.38V81.9027Z" fill="#410083"/>
<path d="M221.134 103.396H205.822V106.722H221.134V103.396Z" fill="#410083"/>
<path d="M274.157 103.396H268.77V106.722H274.157V103.396Z" fill="#410083"/>
<path d="M284.932 103.396H279.544V106.722H284.932V103.396Z" fill="#410083"/>
<path d="M263.099 103.396H226.521V106.722H263.099V103.396Z" fill="#410083"/>
<path d="M284.365 89.323H269.053V92.6493H284.365V89.323Z" fill="#410083"/>
<path d="M305.064 89.323H289.752V92.6493H305.064V89.323Z" fill="#410083"/>
<path d="M211.21 89.323H205.822V92.6493H211.21V89.323Z" fill="#410083"/>
<path d="M221.985 89.323H216.597V92.6493H221.985V89.323Z" fill="#410083"/>
<path d="M263.949 89.323H227.372V92.6493H263.949V89.323Z" fill="#410083"/>
<path d="M252.608 96.4873H237.296V99.8136H252.608V96.4873Z" fill="#410083"/>
<path d="M231.909 96.4873H216.597V99.8136H231.909V96.4873Z" fill="#410083"/>
<path d="M211.21 96.4873H205.822V99.8136H211.21V96.4873Z" fill="#410083"/>
<path d="M305.064 96.4873H299.676V99.8136H305.064V96.4873Z" fill="#410083"/>
<path d="M294.289 96.4873H257.711V99.8136H294.289V96.4873Z" fill="#410083"/>
</g>
<defs>
<clipPath id="clip0_365_3">
<rect width="366" height="311" fill="white"/>
</clipPath>
</defs>
</svg>
