<svg width="399" height="288" viewBox="0 0 399 288" fill="none" xmlns="http://www.w3.org/2000/svg">
<path d="M194.762 84.7718V203.228C194.762 208.463 192.591 213.483 188.726 217.184C184.861 220.885 179.619 222.965 174.154 222.965C168.688 222.965 163.446 220.885 159.581 217.184C155.716 213.483 153.545 208.463 153.545 203.228V201.566C152.553 201.693 151.553 201.757 150.553 201.757C144.299 201.752 138.302 199.37 133.881 195.134C129.459 190.898 126.974 185.154 126.972 179.164C126.964 174.346 128.584 169.654 131.59 165.79C126.659 164.441 122.32 161.59 119.231 157.669C116.143 153.747 114.472 148.969 114.472 144.057C114.472 139.145 116.143 134.367 119.231 130.446C122.32 126.525 126.659 123.674 131.59 122.324C128.584 118.46 126.964 113.769 126.972 108.95C126.974 102.961 129.459 97.2171 133.881 92.981C138.302 88.7449 144.299 86.3626 150.553 86.3576C151.553 86.358 152.553 86.4218 153.545 86.5486V84.7718C153.545 79.5374 155.716 74.5173 159.581 70.8161C163.446 67.1148 168.688 65.0354 174.154 65.0354C179.619 65.0354 184.861 67.1148 188.726 70.8161C192.591 74.5173 194.762 79.5374 194.762 84.7718V84.7718Z" fill="#410083"/>
<path d="M174.154 223.91C168.427 223.905 162.936 221.725 158.885 217.848C154.835 213.97 152.556 208.713 152.548 203.228V202.626C151.889 202.684 151.231 202.712 150.553 202.712C144.035 202.705 137.786 200.221 133.178 195.806C128.57 191.392 125.98 185.406 125.974 179.164C125.947 174.583 127.335 170.096 129.964 166.268C125.136 164.665 120.949 161.661 117.986 157.673C115.023 153.686 113.43 148.913 113.43 144.019C113.43 139.125 115.023 134.352 117.986 130.365C120.949 126.378 125.136 123.373 129.964 121.77C127.335 117.943 125.947 113.455 125.974 108.874C125.98 102.632 128.57 96.6466 133.178 92.2318C137.786 87.8171 144.035 85.3334 150.553 85.3258C151.221 85.3258 151.879 85.3258 152.548 85.4118V84.7717C152.548 79.284 154.824 74.021 158.876 70.1405C162.928 66.2601 168.423 64.0801 174.154 64.0801C179.884 64.0801 185.379 66.2601 189.431 70.1405C193.483 74.021 195.759 79.284 195.759 84.7717V203.228C195.749 208.712 193.469 213.968 189.419 217.845C185.369 221.722 179.88 223.903 174.154 223.91ZM153.545 200.592C153.81 200.592 154.063 200.692 154.251 200.871C154.438 201.051 154.543 201.294 154.543 201.547V203.228C154.543 205.695 155.05 208.137 156.035 210.415C157.021 212.694 158.466 214.764 160.287 216.508C162.108 218.252 164.269 219.636 166.649 220.58C169.028 221.523 171.578 222.009 174.154 222.009C176.729 222.009 179.279 221.523 181.658 220.58C184.038 219.636 186.199 218.252 188.02 216.508C189.842 214.764 191.286 212.694 192.272 210.415C193.257 208.137 193.764 205.695 193.764 203.228V84.7717C193.764 82.3054 193.257 79.8632 192.272 77.5845C191.286 75.3059 189.842 73.2355 188.02 71.4915C186.199 69.7475 184.038 68.3641 181.658 67.4203C179.279 66.4765 176.729 65.9907 174.154 65.9907C171.578 65.9907 169.028 66.4765 166.649 67.4203C164.269 68.3641 162.108 69.7475 160.287 71.4915C158.466 73.2355 157.021 75.3059 156.035 77.5845C155.05 79.8632 154.543 82.3054 154.543 84.7717V86.434C154.544 86.5715 154.514 86.7077 154.456 86.8333C154.397 86.9589 154.311 87.0708 154.203 87.1615C154.095 87.2522 153.968 87.3195 153.83 87.3588C153.693 87.3981 153.548 87.4085 153.406 87.3893C152.463 87.2708 151.513 87.2102 150.563 87.2078C144.574 87.2153 138.833 89.4977 134.599 93.5542C130.365 97.6106 127.985 103.11 127.979 108.845C127.957 113.471 129.508 117.978 132.398 121.684C132.495 121.808 132.559 121.953 132.584 122.106C132.609 122.259 132.595 122.416 132.543 122.563C132.491 122.709 132.402 122.842 132.285 122.948C132.168 123.055 132.025 123.132 131.87 123.175C127.145 124.466 122.989 127.196 120.029 130.952C117.07 134.708 115.469 139.285 115.469 143.99C115.469 148.696 117.07 153.273 120.029 157.029C122.989 160.785 127.145 163.515 131.87 164.806C132.025 164.848 132.168 164.926 132.285 165.033C132.402 165.139 132.491 165.272 132.543 165.418C132.595 165.565 132.609 165.722 132.584 165.875C132.559 166.028 132.495 166.172 132.398 166.297C129.508 170.003 127.957 174.51 127.979 179.136C127.985 184.871 130.365 190.37 134.599 194.427C138.833 198.483 144.574 200.765 150.563 200.773C151.513 200.771 152.463 200.71 153.406 200.592H153.545Z" fill="#FFD600"/>
<path d="M204.238 84.7718V203.228C204.238 208.463 206.409 213.483 210.274 217.184C214.139 220.885 219.381 222.965 224.847 222.965C230.312 222.965 235.554 220.885 239.419 217.184C243.284 213.483 245.455 208.463 245.455 203.228V201.566C246.447 201.693 247.447 201.757 248.447 201.757C254.702 201.752 260.698 199.37 265.119 195.134C269.541 190.898 272.026 185.154 272.028 179.164C272.036 174.346 270.416 169.654 267.41 165.79C272.341 164.441 276.68 161.59 279.769 157.669C282.857 153.747 284.528 148.969 284.528 144.057C284.528 139.145 282.857 134.367 279.769 130.446C276.68 126.525 272.341 123.674 267.41 122.324C270.416 118.46 272.036 113.769 272.028 108.95C272.026 102.961 269.541 97.2171 265.119 92.981C260.698 88.7449 254.702 86.3626 248.447 86.3576C247.447 86.358 246.447 86.4218 245.455 86.5486V84.7718C245.455 79.5374 243.284 74.5173 239.419 70.8161C235.554 67.1148 230.312 65.0354 224.847 65.0354C219.381 65.0354 214.139 67.1148 210.274 70.8161C206.409 74.5173 204.238 79.5374 204.238 84.7718V84.7718Z" fill="#410083"/>
<path d="M224.847 223.91C219.12 223.903 213.631 221.722 209.581 217.845C205.531 213.968 203.251 208.712 203.241 203.228V84.7717C203.241 82.0545 203.8 79.3638 204.885 76.8534C205.971 74.343 207.563 72.0619 209.569 70.1405C211.575 68.2191 213.957 66.695 216.578 65.6551C219.2 64.6153 222.009 64.0801 224.847 64.0801C227.684 64.0801 230.493 64.6153 233.115 65.6551C235.736 66.695 238.118 68.2191 240.124 70.1405C242.13 72.0619 243.722 74.343 244.808 76.8534C245.894 79.3638 246.452 82.0545 246.452 84.7717V85.3736C247.111 85.3163 247.769 85.2876 248.447 85.2876C254.965 85.2952 261.214 87.7789 265.822 92.1936C270.43 96.6083 273.02 102.593 273.026 108.836C273.053 113.417 271.665 117.904 269.036 121.732C273.864 123.335 278.051 126.339 281.014 130.327C283.977 134.314 285.57 139.087 285.57 143.981C285.57 148.875 283.977 153.648 281.014 157.635C278.051 161.622 273.864 164.627 269.036 166.23C271.665 170.057 273.053 174.544 273.026 179.126C273.02 185.368 270.43 191.353 265.822 195.768C261.214 200.183 254.965 202.667 248.447 202.674C247.779 202.674 247.121 202.674 246.452 202.588V203.228C246.444 208.713 244.165 213.97 240.115 217.848C236.064 221.725 230.573 223.905 224.847 223.91V223.91ZM224.847 66.0002C219.648 66.0027 214.663 67.981 210.986 71.5005C207.309 75.02 205.241 79.7931 205.236 84.7717V203.228C205.236 208.209 207.302 212.986 210.98 216.508C214.657 220.031 219.645 222.009 224.847 222.009C230.048 222.009 235.036 220.031 238.713 216.508C242.391 212.986 244.457 208.209 244.457 203.228V201.566C244.456 201.428 244.486 201.292 244.544 201.167C244.603 201.041 244.689 200.929 244.797 200.838C244.905 200.748 245.032 200.68 245.17 200.641C245.307 200.602 245.452 200.591 245.595 200.611C246.537 200.729 247.487 200.79 248.437 200.792C254.426 200.785 260.167 198.502 264.401 194.446C268.635 190.389 271.016 184.89 271.021 179.155C271.043 174.529 269.492 170.022 266.602 166.316C266.505 166.191 266.442 166.047 266.416 165.894C266.391 165.741 266.405 165.584 266.457 165.437C266.509 165.291 266.598 165.158 266.715 165.052C266.832 164.945 266.975 164.867 267.131 164.825C271.855 163.534 276.012 160.804 278.971 157.048C281.93 153.292 283.531 148.715 283.531 144.01C283.531 139.304 281.93 134.727 278.971 130.971C276.012 127.215 271.855 124.485 267.131 123.194C266.975 123.152 266.832 123.074 266.715 122.967C266.598 122.861 266.509 122.728 266.457 122.582C266.405 122.435 266.391 122.278 266.416 122.125C266.442 121.972 266.505 121.828 266.602 121.703C269.492 117.997 271.043 113.49 271.021 108.864C271.016 103.129 268.635 97.6297 264.401 93.5733C260.167 89.5168 254.426 87.2344 248.437 87.2269C247.487 87.2293 246.537 87.2899 245.595 87.4084C245.452 87.4276 245.307 87.4173 245.17 87.3779C245.032 87.3386 244.905 87.2713 244.797 87.1806C244.689 87.0899 244.603 86.978 244.544 86.8524C244.486 86.7268 244.456 86.5906 244.457 86.4531V84.7717C244.447 79.7947 242.377 75.0245 238.701 71.5061C235.025 67.9876 230.043 66.0078 224.847 66.0002V66.0002Z" fill="#FFD600"/>
<path d="M248.078 188.908C250.034 188.908 251.619 187.39 251.619 185.517C251.619 183.644 250.034 182.126 248.078 182.126C246.123 182.126 244.537 183.644 244.537 185.517C244.537 187.39 246.123 188.908 248.078 188.908Z" fill="#FFD600"/>
<path d="M248.078 189.854C247.181 189.854 246.303 189.599 245.557 189.122C244.81 188.644 244.229 187.965 243.885 187.171C243.542 186.377 243.452 185.503 243.627 184.659C243.802 183.816 244.234 183.042 244.869 182.434C245.504 181.826 246.312 181.412 247.193 181.244C248.073 181.077 248.986 181.163 249.815 181.492C250.644 181.821 251.353 182.378 251.852 183.093C252.351 183.807 252.617 184.648 252.617 185.507C252.617 186.078 252.499 186.643 252.271 187.171C252.043 187.698 251.709 188.177 251.288 188.581C250.866 188.985 250.366 189.305 249.815 189.523C249.264 189.742 248.674 189.854 248.078 189.854ZM248.078 183.081C247.575 183.081 247.083 183.224 246.664 183.492C246.246 183.76 245.92 184.141 245.727 184.587C245.535 185.033 245.485 185.523 245.584 185.996C245.683 186.469 245.926 186.903 246.283 187.243C246.64 187.583 247.094 187.814 247.588 187.907C248.082 188 248.594 187.951 249.059 187.765C249.523 187.579 249.92 187.265 250.198 186.863C250.476 186.462 250.624 185.99 250.622 185.507C250.621 185.189 250.554 184.874 250.425 184.58C250.297 184.286 250.109 184.019 249.873 183.795C249.637 183.57 249.357 183.392 249.049 183.272C248.741 183.151 248.411 183.089 248.078 183.091V183.081Z" fill="#FFD600"/>
<path d="M215.52 187.628C217.476 187.628 219.061 186.11 219.061 184.237C219.061 182.364 217.476 180.846 215.52 180.846C213.564 180.846 211.979 182.364 211.979 184.237C211.979 186.11 213.564 187.628 215.52 187.628Z" fill="#FFD600"/>
<path d="M215.52 188.574C214.621 188.576 213.743 188.322 212.995 187.845C212.247 187.369 211.663 186.69 211.319 185.895C210.974 185.101 210.883 184.226 211.058 183.382C211.233 182.538 211.665 181.762 212.301 181.154C212.936 180.545 213.746 180.131 214.627 179.964C215.508 179.797 216.422 179.883 217.251 180.214C218.081 180.544 218.79 181.102 219.288 181.819C219.786 182.535 220.051 183.376 220.049 184.237C220.046 185.386 219.568 186.488 218.719 187.301C217.87 188.114 216.72 188.571 215.52 188.574V188.574ZM215.52 181.801C215.016 181.799 214.524 181.94 214.104 182.207C213.684 182.473 213.357 182.853 213.163 183.298C212.969 183.743 212.917 184.233 213.014 184.706C213.111 185.18 213.352 185.614 213.708 185.956C214.063 186.298 214.516 186.531 215.01 186.625C215.504 186.72 216.016 186.673 216.481 186.488C216.946 186.304 217.344 185.992 217.624 185.591C217.904 185.191 218.054 184.719 218.054 184.237C218.054 183.593 217.787 182.974 217.312 182.518C216.837 182.061 216.193 181.804 215.52 181.801V181.801Z" fill="#FFD600"/>
<path d="M163.42 195.49C165.376 195.49 166.961 193.972 166.961 192.099C166.961 190.226 165.376 188.708 163.42 188.708C161.465 188.708 159.879 190.226 159.879 192.099C159.879 193.972 161.465 195.49 163.42 195.49Z" fill="#FFD600"/>
<path d="M163.42 196.446C162.523 196.446 161.645 196.191 160.899 195.713C160.153 195.236 159.571 194.557 159.227 193.762C158.884 192.968 158.794 192.094 158.969 191.251C159.144 190.408 159.576 189.633 160.211 189.026C160.846 188.418 161.655 188.004 162.535 187.836C163.415 187.668 164.328 187.754 165.157 188.083C165.987 188.412 166.695 188.969 167.194 189.684C167.693 190.399 167.959 191.239 167.959 192.099C167.959 192.67 167.842 193.235 167.614 193.762C167.385 194.29 167.051 194.769 166.63 195.173C166.208 195.576 165.708 195.896 165.157 196.115C164.607 196.333 164.016 196.446 163.42 196.446ZM163.42 189.673C162.917 189.673 162.425 189.816 162.006 190.084C161.588 190.352 161.262 190.733 161.069 191.179C160.877 191.624 160.827 192.115 160.926 192.587C161.025 193.06 161.269 193.494 161.625 193.834C161.982 194.175 162.436 194.406 162.93 194.499C163.424 194.592 163.936 194.542 164.401 194.356C164.865 194.171 165.262 193.857 165.54 193.455C165.819 193.053 165.966 192.581 165.964 192.099C165.961 191.455 165.692 190.837 165.215 190.383C164.739 189.928 164.093 189.673 163.42 189.673V189.673Z" fill="#FFD600"/>
<path d="M145.306 167.825C147.262 167.825 148.847 166.307 148.847 164.434C148.847 162.561 147.262 161.042 145.306 161.042C143.35 161.042 141.765 162.561 141.765 164.434C141.765 166.307 143.35 167.825 145.306 167.825Z" fill="#FFD600"/>
<path d="M145.306 168.771C144.408 168.771 143.53 168.516 142.783 168.038C142.037 167.56 141.455 166.88 141.112 166.085C140.769 165.291 140.679 164.416 140.855 163.573C141.031 162.729 141.464 161.955 142.1 161.347C142.736 160.74 143.545 160.327 144.427 160.16C145.308 159.993 146.22 160.081 147.05 160.411C147.879 160.742 148.587 161.3 149.084 162.016C149.582 162.732 149.846 163.574 149.844 164.434C149.842 165.585 149.362 166.688 148.512 167.501C147.661 168.314 146.508 168.771 145.306 168.771V168.771ZM145.306 161.998C144.803 161.998 144.311 162.141 143.893 162.408C143.474 162.676 143.148 163.056 142.956 163.501C142.763 163.947 142.713 164.436 142.811 164.909C142.909 165.381 143.151 165.816 143.507 166.156C143.863 166.497 144.316 166.729 144.81 166.823C145.303 166.917 145.814 166.869 146.279 166.684C146.744 166.5 147.141 166.188 147.421 165.787C147.7 165.386 147.849 164.916 147.849 164.434C147.849 164.114 147.784 163.797 147.656 163.501C147.528 163.206 147.341 162.937 147.104 162.711C146.868 162.485 146.588 162.306 146.279 162.183C145.971 162.061 145.64 161.998 145.306 161.998V161.998Z" fill="#FFD600"/>
<path d="M128.209 145.471C130.164 145.471 131.75 143.953 131.75 142.08C131.75 140.207 130.164 138.689 128.209 138.689C126.253 138.689 124.668 140.207 124.668 142.08C124.668 143.953 126.253 145.471 128.209 145.471Z" fill="#FFD600"/>
<path d="M128.209 146.417C127.311 146.417 126.433 146.162 125.686 145.684C124.94 145.206 124.358 144.526 124.015 143.731C123.671 142.937 123.582 142.062 123.758 141.219C123.934 140.375 124.367 139.601 125.003 138.993C125.639 138.386 126.448 137.973 127.329 137.806C128.21 137.639 129.123 137.727 129.952 138.057C130.782 138.388 131.49 138.946 131.987 139.662C132.485 140.378 132.749 141.22 132.747 142.08C132.747 142.65 132.63 143.215 132.402 143.742C132.173 144.269 131.839 144.747 131.417 145.15C130.996 145.553 130.495 145.872 129.945 146.089C129.394 146.307 128.804 146.418 128.209 146.417V146.417ZM128.209 139.644C127.706 139.644 127.214 139.787 126.796 140.054C126.377 140.322 126.051 140.703 125.859 141.148C125.666 141.593 125.616 142.083 125.714 142.555C125.812 143.028 126.054 143.462 126.41 143.802C126.766 144.143 127.219 144.375 127.712 144.469C128.206 144.563 128.717 144.515 129.182 144.33C129.647 144.146 130.044 143.834 130.324 143.433C130.603 143.033 130.752 142.562 130.752 142.08C130.752 141.434 130.484 140.814 130.007 140.357C129.53 139.9 128.883 139.644 128.209 139.644V139.644Z" fill="#FFD600"/>
<path d="M146.234 115.351C148.189 115.351 149.775 113.832 149.775 111.959C149.775 110.086 148.189 108.568 146.234 108.568C144.278 108.568 142.692 110.086 142.692 111.959C142.692 113.832 144.278 115.351 146.234 115.351Z" fill="#FFD600"/>
<path d="M146.234 116.296C145.335 116.298 144.457 116.045 143.709 115.569C142.962 115.092 142.378 114.414 142.033 113.62C141.688 112.826 141.597 111.952 141.771 111.108C141.945 110.264 142.376 109.489 143.011 108.88C143.645 108.271 144.454 107.856 145.334 107.688C146.215 107.519 147.128 107.605 147.958 107.933C148.788 108.262 149.497 108.819 149.997 109.534C150.496 110.249 150.762 111.09 150.762 111.95C150.762 113.101 150.285 114.205 149.436 115.02C148.587 115.835 147.436 116.294 146.234 116.296V116.296ZM146.234 109.523C145.73 109.522 145.236 109.663 144.817 109.93C144.397 110.197 144.069 110.577 143.875 111.023C143.682 111.468 143.631 111.959 143.728 112.432C143.826 112.906 144.069 113.341 144.425 113.682C144.781 114.023 145.235 114.255 145.73 114.349C146.224 114.443 146.736 114.394 147.202 114.208C147.667 114.023 148.064 113.709 148.343 113.307C148.621 112.905 148.769 112.433 148.767 111.95C148.762 111.309 148.493 110.696 148.019 110.243C147.544 109.791 146.903 109.536 146.234 109.533V109.523Z" fill="#FFD600"/>
<path d="M164.647 93.8279C166.603 93.8279 168.188 92.3096 168.188 90.4366C168.188 88.5637 166.603 87.0453 164.647 87.0453C162.692 87.0453 161.106 88.5637 161.106 90.4366C161.106 92.3096 162.692 93.8279 164.647 93.8279Z" fill="#FFD600"/>
<path d="M164.647 94.7737C163.749 94.7756 162.87 94.522 162.122 94.0451C161.374 93.5682 160.791 92.8895 160.446 92.0949C160.101 91.3002 160.011 90.4255 160.185 89.5815C160.36 88.7374 160.793 87.962 161.428 87.3536C162.063 86.7451 162.873 86.331 163.754 86.1636C164.636 85.9962 165.549 86.083 166.379 86.4132C167.209 86.7434 167.917 87.302 168.415 88.0182C168.913 88.7345 169.178 89.5762 169.176 90.4366C169.173 91.5861 168.695 92.6878 167.847 93.5006C166.998 94.3134 165.848 94.7712 164.647 94.7737V94.7737ZM164.647 88.0006C164.144 87.9987 163.651 88.14 163.231 88.4065C162.812 88.673 162.484 89.0528 162.29 89.4978C162.096 89.9427 162.044 90.4328 162.141 90.906C162.238 91.3792 162.48 91.8141 162.835 92.1557C163.191 92.4974 163.644 92.7303 164.137 92.8251C164.631 92.9199 165.143 92.8722 165.608 92.6881C166.074 92.504 166.472 92.1918 166.752 91.791C167.032 91.3902 167.181 90.9188 167.181 90.4366C167.181 89.7922 166.914 89.1741 166.44 88.7175C165.965 88.2609 165.32 88.0032 164.647 88.0006V88.0006Z" fill="#FFD600"/>
<path d="M248.318 185.192C248.113 185.192 247.913 185.132 247.745 185.019C247.577 184.906 247.45 184.746 247.38 184.562L238.881 161.998H220.208C219.944 161.998 219.69 161.897 219.503 161.718C219.316 161.539 219.211 161.296 219.211 161.042C219.211 160.789 219.316 160.546 219.503 160.367C219.69 160.188 219.944 160.087 220.208 160.087H239.58C239.785 160.087 239.985 160.148 240.152 160.261C240.32 160.373 240.448 160.533 240.517 160.718L249.255 183.912C249.345 184.15 249.333 184.413 249.22 184.642C249.108 184.871 248.905 185.049 248.657 185.135C248.548 185.173 248.433 185.192 248.318 185.192Z" fill="#FFD600"/>
<path d="M219.959 121.207H179.61C177.61 121.207 175.989 122.759 175.989 124.674V163.316C175.989 165.231 177.61 166.784 179.61 166.784H219.959C221.959 166.784 223.58 165.231 223.58 163.316V124.674C223.58 122.759 221.959 121.207 219.959 121.207Z" fill="white"/>
<path d="M219.959 167.739H179.61C179.004 167.74 178.404 167.627 177.843 167.406C177.283 167.185 176.774 166.86 176.345 166.45C175.916 166.04 175.575 165.553 175.343 165.017C175.111 164.481 174.991 163.906 174.991 163.326V124.674C174.991 124.094 175.111 123.519 175.343 122.983C175.575 122.447 175.916 121.96 176.345 121.55C176.774 121.14 177.283 120.815 177.843 120.594C178.404 120.373 179.004 120.26 179.61 120.261H219.959C221.182 120.261 222.355 120.726 223.221 121.553C224.087 122.38 224.575 123.503 224.577 124.674V163.326C224.575 164.497 224.087 165.62 223.221 166.447C222.355 167.274 221.182 167.739 219.959 167.739V167.739ZM179.61 122.172C179.266 122.17 178.925 122.234 178.607 122.359C178.288 122.485 177.999 122.669 177.755 122.901C177.512 123.134 177.318 123.41 177.186 123.714C177.054 124.019 176.986 124.345 176.986 124.674V163.326C176.986 163.655 177.054 163.981 177.186 164.286C177.318 164.59 177.512 164.866 177.755 165.099C177.999 165.331 178.288 165.515 178.607 165.641C178.925 165.766 179.266 165.83 179.61 165.828H219.959C220.303 165.83 220.644 165.766 220.962 165.641C221.28 165.515 221.569 165.331 221.813 165.099C222.057 164.866 222.25 164.59 222.382 164.286C222.514 163.981 222.582 163.655 222.582 163.326V124.674C222.582 124.345 222.514 124.019 222.382 123.714C222.25 123.41 222.057 123.134 221.813 122.901C221.569 122.669 221.28 122.485 220.962 122.359C220.644 122.234 220.303 122.17 219.959 122.172H179.61Z" fill="#FFD600"/>
<path d="M213.126 128.935H186.443C185.121 128.935 184.049 129.961 184.049 131.228V156.782C184.049 158.048 185.121 159.075 186.443 159.075H213.126C214.448 159.075 215.52 158.048 215.52 156.782V131.228C215.52 129.961 214.448 128.935 213.126 128.935Z" fill="#FFD600"/>
<path d="M213.126 160.02H186.443C185.997 160.02 185.556 159.936 185.145 159.773C184.733 159.61 184.359 159.371 184.045 159.069C183.73 158.767 183.48 158.409 183.309 158.015C183.139 157.621 183.051 157.199 183.051 156.772V131.228C183.051 130.801 183.139 130.379 183.309 129.985C183.48 129.591 183.73 129.233 184.045 128.931C184.359 128.629 184.733 128.39 185.145 128.227C185.556 128.064 185.997 127.98 186.443 127.98H213.126C214.025 127.98 214.888 128.322 215.524 128.931C216.16 129.54 216.517 130.366 216.517 131.228V156.772C216.517 157.634 216.16 158.46 215.524 159.069C214.888 159.678 214.025 160.02 213.126 160.02ZM186.443 129.89C186.072 129.89 185.717 130.031 185.455 130.282C185.193 130.533 185.046 130.873 185.046 131.228V156.772C185.046 156.948 185.082 157.122 185.153 157.284C185.223 157.446 185.326 157.594 185.455 157.718C185.585 157.842 185.739 157.941 185.908 158.008C186.078 158.075 186.259 158.11 186.443 158.11H213.126C213.309 158.11 213.491 158.075 213.66 158.008C213.83 157.941 213.984 157.842 214.113 157.718C214.243 157.594 214.346 157.446 214.416 157.284C214.486 157.122 214.522 156.948 214.522 156.772V131.228C214.522 130.873 214.375 130.533 214.113 130.282C213.851 130.031 213.496 129.89 213.126 129.89H186.443Z" fill="#FFD600"/>
<path d="M241.954 130.846H224.258C223.993 130.846 223.74 130.745 223.553 130.566C223.366 130.387 223.26 130.144 223.26 129.89C223.26 129.637 223.366 129.394 223.553 129.215C223.74 129.036 223.993 128.935 224.258 128.935H241.395L249.315 116.516C249.453 116.301 249.675 116.148 249.931 116.089C250.187 116.03 250.457 116.07 250.682 116.201C250.794 116.266 250.892 116.353 250.969 116.455C251.047 116.556 251.102 116.672 251.133 116.794C251.163 116.917 251.168 117.044 251.147 117.168C251.127 117.293 251.08 117.412 251.011 117.519L242.802 130.425C242.708 130.558 242.582 130.665 242.433 130.739C242.285 130.812 242.12 130.849 241.954 130.846V130.846Z" fill="#FFD600"/>
<path d="M251.949 118.303C253.904 118.303 255.49 116.784 255.49 114.911C255.49 113.038 253.904 111.52 251.949 111.52C249.993 111.52 248.407 113.038 248.407 114.911C248.407 116.784 249.993 118.303 251.949 118.303Z" fill="#FFD600"/>
<path d="M251.949 119.258C251.051 119.258 250.173 119.003 249.427 118.525C248.681 118.048 248.099 117.369 247.755 116.575C247.412 115.78 247.322 114.906 247.497 114.063C247.672 113.22 248.105 112.446 248.739 111.838C249.374 111.23 250.183 110.816 251.063 110.648C251.944 110.481 252.856 110.567 253.685 110.896C254.515 111.225 255.224 111.782 255.722 112.496C256.221 113.211 256.487 114.052 256.487 114.911C256.487 116.064 256.009 117.17 255.158 117.985C254.307 118.8 253.152 119.258 251.949 119.258V119.258ZM251.949 112.485C251.445 112.485 250.953 112.628 250.534 112.896C250.116 113.164 249.79 113.545 249.598 113.991C249.405 114.437 249.356 114.927 249.455 115.4C249.554 115.872 249.797 116.306 250.154 116.647C250.51 116.987 250.964 117.218 251.459 117.311C251.953 117.404 252.464 117.354 252.929 117.169C253.394 116.983 253.79 116.669 254.068 116.267C254.347 115.865 254.494 115.393 254.492 114.911C254.494 114.591 254.429 114.274 254.301 113.978C254.174 113.681 253.987 113.412 253.75 113.186C253.514 112.96 253.233 112.78 252.924 112.658C252.614 112.536 252.283 112.474 251.949 112.475V112.485Z" fill="#FFD600"/>
<path d="M234.263 97.2097C236.219 97.2097 237.804 95.6914 237.804 93.8184C237.804 91.9455 236.219 90.4271 234.263 90.4271C232.307 90.4271 230.722 91.9455 230.722 93.8184C230.722 95.6914 232.307 97.2097 234.263 97.2097Z" fill="#FFD600"/>
<path d="M234.263 98.1459C233.365 98.1459 232.488 97.8909 231.741 97.4133C230.995 96.9357 230.413 96.2569 230.07 95.4627C229.726 94.6684 229.636 93.7945 229.811 92.9513C229.987 92.1082 230.419 91.3337 231.054 90.7258C231.688 90.1179 232.497 89.7039 233.377 89.5362C234.258 89.3685 235.17 89.4546 236 89.7836C236.829 90.1125 237.538 90.6697 238.037 91.3845C238.535 92.0992 238.801 92.9396 238.801 93.7993C238.801 94.9521 238.323 96.0576 237.472 96.8728C236.621 97.6879 235.467 98.1459 234.263 98.1459V98.1459ZM234.263 91.3728C233.759 91.3728 233.267 91.516 232.849 91.7841C232.43 92.0521 232.104 92.4332 231.912 92.8788C231.72 93.3245 231.67 93.8148 231.769 94.2876C231.868 94.7604 232.111 95.1944 232.468 95.5347C232.825 95.875 233.279 96.1063 233.773 96.1992C234.267 96.2921 234.779 96.2425 235.243 96.0567C235.708 95.8708 236.104 95.5571 236.383 95.1552C236.661 94.7534 236.808 94.2815 236.806 93.7993C236.799 93.1582 236.527 92.5459 236.051 92.0953C235.575 91.6446 234.932 91.3919 234.263 91.3919V91.3728Z" fill="#FFD600"/>
<path d="M255.44 155.96C257.395 155.96 258.981 154.442 258.981 152.569C258.981 150.696 257.395 149.178 255.44 149.178C253.484 149.178 251.899 150.696 251.899 152.569C251.899 154.442 253.484 155.96 255.44 155.96Z" fill="#FFD600"/>
<path d="M255.44 156.916C254.541 156.917 253.662 156.664 252.915 156.187C252.167 155.71 251.583 155.031 251.239 154.237C250.894 153.442 250.803 152.567 250.978 151.723C251.153 150.879 251.585 150.104 252.221 149.495C252.856 148.887 253.665 148.473 254.547 148.305C255.428 148.138 256.342 148.225 257.171 148.555C258.001 148.885 258.71 149.444 259.208 150.16C259.706 150.876 259.97 151.718 259.968 152.578C259.966 153.728 259.488 154.83 258.639 155.642C257.79 156.455 256.64 156.913 255.44 156.916V156.916ZM255.44 150.142C254.936 150.141 254.444 150.282 254.024 150.548C253.604 150.815 253.277 151.195 253.083 151.64C252.889 152.085 252.837 152.575 252.934 153.048C253.031 153.521 253.272 153.956 253.628 154.298C253.983 154.639 254.436 154.872 254.93 154.967C255.424 155.062 255.936 155.014 256.401 154.83C256.866 154.646 257.264 154.334 257.544 153.933C257.824 153.532 257.973 153.061 257.973 152.578C257.973 151.934 257.707 151.316 257.232 150.859C256.757 150.403 256.113 150.145 255.44 150.142V150.142Z" fill="#FFD600"/>
<path d="M262.512 142.634C264.468 142.634 266.053 141.116 266.053 139.243C266.053 137.37 264.468 135.851 262.512 135.851C260.556 135.851 258.971 137.37 258.971 139.243C258.971 141.116 260.556 142.634 262.512 142.634Z" fill="#FFD600"/>
<path d="M262.512 143.589C261.614 143.591 260.736 143.338 259.988 142.861C259.24 142.385 258.657 141.707 258.312 140.913C257.967 140.119 257.875 139.244 258.049 138.4C258.223 137.557 258.655 136.781 259.289 136.172C259.924 135.564 260.732 135.149 261.613 134.98C262.494 134.812 263.407 134.897 264.237 135.226C265.067 135.555 265.776 136.112 266.275 136.827C266.774 137.542 267.041 138.383 267.041 139.243C267.041 140.394 266.564 141.498 265.715 142.313C264.866 143.128 263.714 143.587 262.512 143.589ZM262.512 136.816C262.008 136.814 261.515 136.956 261.095 137.223C260.675 137.49 260.348 137.87 260.154 138.315C259.96 138.761 259.909 139.252 260.007 139.725C260.105 140.198 260.347 140.633 260.704 140.975C261.06 141.316 261.514 141.548 262.008 141.642C262.503 141.735 263.015 141.686 263.48 141.501C263.945 141.315 264.343 141.002 264.621 140.6C264.9 140.197 265.048 139.725 265.046 139.243C265.043 138.6 264.775 137.984 264.301 137.53C263.826 137.075 263.183 136.819 262.512 136.816V136.816Z" fill="#FFD600"/>
<path d="M255.44 153.553H223.58C223.315 153.553 223.061 153.452 222.874 153.273C222.687 153.094 222.582 152.851 222.582 152.598C222.582 152.344 222.687 152.101 222.874 151.922C223.061 151.743 223.315 151.642 223.58 151.642H255.44C255.704 151.642 255.958 151.743 256.145 151.922C256.332 152.101 256.437 152.344 256.437 152.598C256.437 152.851 256.332 153.094 256.145 153.273C255.958 153.452 255.704 153.553 255.44 153.553Z" fill="#FFD600"/>
<path d="M215.52 122.172C215.255 122.172 215.002 122.071 214.815 121.892C214.627 121.713 214.522 121.47 214.522 121.216V105.932C214.522 105.769 214.565 105.609 214.647 105.467C214.729 105.325 214.847 105.206 214.991 105.12L233.744 94.0954C233.968 93.9637 234.237 93.922 234.493 93.9792C234.749 94.0364 234.971 94.1881 235.111 94.4011C235.18 94.5083 235.226 94.6275 235.247 94.7518C235.268 94.8762 235.263 95.0033 235.233 95.1259C235.202 95.2484 235.146 95.3639 235.069 95.4658C234.992 95.5677 234.894 95.6539 234.782 95.7194L216.517 106.457V121.216C216.517 121.47 216.412 121.713 216.225 121.892C216.038 122.071 215.784 122.172 215.52 122.172Z" fill="#FFD600"/>
<path d="M184.049 122.172C183.869 122.169 183.693 122.119 183.54 122.028L164.588 112.342C164.428 112.26 164.295 112.139 164.202 111.991C164.109 111.843 164.059 111.674 164.059 111.501V90.4367C164.059 90.1833 164.164 89.9403 164.351 89.7612C164.538 89.582 164.792 89.4814 165.056 89.4814C165.321 89.4814 165.575 89.582 165.762 89.7612C165.949 89.9403 166.054 90.1833 166.054 90.4367V110.956L184.538 120.366C184.738 120.464 184.898 120.625 184.991 120.821C185.084 121.017 185.105 121.238 185.051 121.447C184.997 121.656 184.87 121.842 184.692 121.973C184.513 122.105 184.294 122.175 184.069 122.172H184.049Z" fill="#FFD600"/>
<path d="M167.42 131.008C162.952 131.008 156.258 130.96 146.214 130.846C145.949 130.846 145.695 130.745 145.508 130.566C145.321 130.387 145.216 130.144 145.216 129.89V112.695C145.216 112.442 145.321 112.199 145.508 112.019C145.695 111.84 145.949 111.74 146.214 111.74C146.478 111.74 146.732 111.84 146.919 112.019C147.106 112.199 147.211 112.442 147.211 112.695V128.935C158.184 129.059 173.944 129.155 175.63 128.935C175.74 128.904 175.854 128.888 175.969 128.887C176.166 128.888 176.359 128.945 176.522 129.05C176.686 129.156 176.813 129.306 176.888 129.481C176.963 129.655 176.982 129.848 176.942 130.033C176.903 130.218 176.807 130.388 176.667 130.521C176.428 130.817 176.228 131.008 167.42 131.008Z" fill="#FFD600"/>
<path d="M174.562 143.045H129.356C129.091 143.045 128.838 142.944 128.65 142.765C128.463 142.586 128.358 142.343 128.358 142.089C128.358 141.836 128.463 141.593 128.65 141.414C128.838 141.235 129.091 141.134 129.356 141.134H174.562C174.827 141.134 175.081 141.235 175.268 141.414C175.455 141.593 175.56 141.836 175.56 142.089C175.56 142.343 175.455 142.586 175.268 142.765C175.081 142.944 174.827 143.045 174.562 143.045Z" fill="#FFD600"/>
<path d="M260.966 141.134H223.58C223.315 141.134 223.061 141.033 222.874 140.854C222.687 140.675 222.582 140.432 222.582 140.179C222.582 139.925 222.687 139.682 222.874 139.503C223.061 139.324 223.315 139.224 223.58 139.224H260.966C261.23 139.224 261.484 139.324 261.671 139.503C261.858 139.682 261.963 139.925 261.963 140.179C261.963 140.432 261.858 140.675 261.671 140.854C261.484 141.033 261.23 141.134 260.966 141.134Z" fill="#FFD600"/>
<path d="M146.224 164.309C146.011 164.307 145.805 164.241 145.635 164.118C145.529 164.044 145.44 163.95 145.373 163.843C145.305 163.735 145.26 163.616 145.241 163.491C145.221 163.367 145.228 163.24 145.259 163.119C145.291 162.997 145.347 162.882 145.426 162.781L153.815 152.005C153.901 151.894 154.012 151.802 154.14 151.736C154.267 151.67 154.408 151.632 154.553 151.623C168.139 150.773 175.56 150.821 176.607 151.757C176.726 151.862 176.821 151.989 176.886 152.13C176.951 152.271 176.985 152.424 176.986 152.578C176.987 152.775 176.924 152.967 176.806 153.128C176.688 153.289 176.521 153.412 176.328 153.479C176.135 153.546 175.925 153.554 175.727 153.502C175.529 153.45 175.352 153.341 175.221 153.19C173.515 152.712 163.919 152.961 155.141 153.496L147.032 163.927C146.938 164.047 146.816 164.144 146.675 164.211C146.535 164.277 146.38 164.311 146.224 164.309V164.309Z" fill="#FFD600"/>
<path d="M162.593 191.927C162.328 191.927 162.074 191.826 161.887 191.647C161.7 191.468 161.595 191.225 161.595 190.972V161.042C161.595 160.789 161.7 160.546 161.887 160.367C162.074 160.188 162.328 160.087 162.593 160.087H176.039C176.303 160.087 176.557 160.188 176.744 160.367C176.931 160.546 177.036 160.789 177.036 161.042C177.036 161.296 176.931 161.539 176.744 161.718C176.557 161.897 176.303 161.998 176.039 161.998H163.59V190.972C163.59 191.225 163.485 191.468 163.298 191.647C163.111 191.826 162.857 191.927 162.593 191.927V191.927Z" fill="#FFD600"/>
<path d="M215.52 181.362C215.255 181.362 215.002 181.261 214.815 181.082C214.627 180.903 214.522 180.66 214.522 180.406V166.784C214.522 166.53 214.627 166.287 214.815 166.108C215.002 165.929 215.255 165.828 215.52 165.828C215.784 165.828 216.038 165.929 216.225 166.108C216.412 166.287 216.517 166.53 216.517 166.784V180.406C216.517 180.532 216.492 180.656 216.441 180.772C216.391 180.888 216.318 180.993 216.225 181.082C216.133 181.17 216.023 181.241 215.902 181.289C215.781 181.337 215.651 181.362 215.52 181.362Z" fill="#FFD600"/>
<path d="M197.824 136.415H189.316C189.051 136.415 188.797 136.314 188.61 136.135C188.423 135.956 188.318 135.713 188.318 135.46C188.318 135.206 188.423 134.963 188.61 134.784C188.797 134.605 189.051 134.504 189.316 134.504H197.824C198.089 134.504 198.343 134.605 198.53 134.784C198.717 134.963 198.822 135.206 198.822 135.46C198.822 135.713 198.717 135.956 198.53 136.135C198.343 136.314 198.089 136.415 197.824 136.415Z" fill="black"/>
</svg>
